<svg width="34" height="34" viewBox="0 0 34 34" fill="none" xmlns="http://www.w3.org/2000/svg">
<g clip-path="url(#clip0_77_2340)">
<path d="M16.8032 0.629883C21.4468 0.629883 25.4082 2.26954 28.6875 5.54886C31.9668 8.82819 33.6065 12.7765 33.6065 17.3938C33.6065 21.0666 32.5309 24.3591 30.3796 27.2711C28.2284 30.1831 25.4738 32.2163 22.1157 33.3706C21.3812 33.4756 21.0139 33.187 21.0139 32.5049V27.9401C21.0139 26.5234 20.6204 25.474 19.8333 24.7919C22.142 24.5296 23.9915 23.8212 25.3819 22.6669C26.7724 21.5126 27.4676 19.4925 27.4676 16.6067C27.4676 14.8228 26.8904 13.3012 25.7361 12.0419C26.3133 10.6777 26.2608 9.18235 25.5787 7.55581C24.6343 7.29346 23.1127 7.87062 21.0139 9.28729C19.6497 8.92001 18.233 8.73636 16.7639 8.73636C15.2948 8.73636 13.9043 8.92001 12.5926 9.28729C11.6481 8.65766 10.7955 8.19856 10.0347 7.90998C9.27392 7.6214 8.73611 7.50334 8.4213 7.55581H7.94907C7.31944 9.18235 7.26697 10.6777 7.79167 12.0419C6.63735 13.3012 6.06018 14.8228 6.06018 16.6067C6.06018 19.4925 6.76852 21.5126 8.18518 22.6669C9.60185 23.8212 11.4383 24.5296 13.6944 24.7919C13.1173 25.3166 12.7762 26.0774 12.6713 27.0743C10.4676 28.0188 8.84105 27.5466 7.79167 25.6577C7.16204 24.6083 6.2963 24.0311 5.19444 23.9262C5.08951 23.9262 4.97145 23.9393 4.84028 23.9655C4.70911 23.9918 4.57793 24.0836 4.44676 24.241C4.31559 24.3984 4.53858 24.6345 5.11574 24.9493C5.85031 25.3166 6.4537 26.1299 6.92593 27.3891C6.97839 27.4941 7.03086 27.6121 7.08333 27.7433C7.1358 27.8745 7.30633 28.1237 7.59491 28.491C7.88349 28.8583 8.22454 29.1337 8.61806 29.3174C9.01157 29.501 9.54938 29.6716 10.2315 29.829C10.9136 29.9864 11.7006 29.9339 12.5926 29.6716V32.5049C12.5926 33.187 12.2253 33.4756 11.4907 33.3706C8.13272 32.2163 5.37809 30.1831 3.22685 27.2711C1.07562 24.3591 0 21.0666 0 17.3938C0 12.7765 1.63966 8.82819 4.91898 5.54886C8.1983 2.26954 12.1597 0.629883 16.8032 0.629883Z" fill="black"/>
</g>
<defs>
<clipPath id="clip0_77_2340">
<rect width="34" height="34" fill="white"/>
</clipPath>
</defs>
</svg>
