<svg width="78" height="78" viewBox="0 0 78 78" fill="none" xmlns="http://www.w3.org/2000/svg">
<g clip-path="url(#clip0_76_1120)">
<path d="M39 78C28.6566 78 18.7368 73.8911 11.4228 66.5772C4.10892 59.2632 0 49.3434 0 39C0 28.6566 4.10892 18.7368 11.4228 11.4228C18.7368 4.10892 28.6566 0 39 0C49.3434 0 59.2632 4.10892 66.5772 11.4228C73.8911 18.7368 78 28.6566 78 39C78 49.3434 73.8911 59.2632 66.5772 66.5772C59.2632 73.8911 49.3434 78 39 78ZM69.225 46.8C70.5443 41.6837 70.5443 36.3163 69.225 31.2H54.327C54.6884 36.3937 54.6884 41.6063 54.327 46.8H69.225ZM66.027 54.6H53.469C52.8158 59.3009 51.5709 63.9004 49.764 68.289C56.6152 65.7617 62.3678 60.9195 66.027 54.6ZM31.512 46.8H46.488C46.9113 41.6086 46.9113 36.3914 46.488 31.2H31.512C31.0887 36.3914 31.0887 41.6086 31.512 46.8ZM32.487 54.6C34.086 63.96 36.894 70.2 39 70.2C41.106 70.2 43.914 63.96 45.513 54.6H32.487ZM8.775 46.8H23.673C23.3116 41.6063 23.3116 36.3937 23.673 31.2H8.775C7.45573 36.3163 7.45573 41.6837 8.775 46.8ZM11.973 54.6C15.6322 60.9195 21.3848 65.7617 28.236 68.289C26.598 64.545 25.35 59.865 24.531 54.6H11.973ZM66.027 23.4C62.3678 17.0805 56.6152 12.2383 49.764 9.711C51.402 13.455 52.65 18.135 53.469 23.4H66.027ZM32.487 23.4H45.513C43.914 14.04 41.106 7.8 39 7.8C36.894 7.8 34.086 14.04 32.487 23.4ZM11.973 23.4H24.531C25.311 18.135 26.598 13.455 28.236 9.711C21.3848 12.2383 15.6322 17.0805 11.973 23.4Z" fill="#589DC8"/>
</g>
<defs>
<clipPath id="clip0_76_1120">
<rect width="78" height="78" fill="white"/>
</clipPath>
</defs>
</svg>
