<svg width="458" height="440" viewBox="0 0 458 440" fill="none" xmlns="http://www.w3.org/2000/svg">
<path fill-rule="evenodd" clip-rule="evenodd" d="M204.826 23.7958C183.811 26.1294 166.546 30.7175 145.671 39.5152C133.285 44.7375 112.727 56.9995 103.476 64.686C102.732 65.3041 101.263 66.5036 100.21 67.351C89.6363 75.8724 79.0153 86.6482 69.4076 98.6052C65.5569 103.397 60.2166 110.658 60.2166 111.102C60.2166 111.242 59.1289 112.966 57.7996 114.932C56.4702 116.899 55.3825 118.576 55.3825 118.658C55.3825 118.741 54.6497 120.057 53.7543 121.582C50.0399 127.918 48.588 130.739 43.8351 140.866C37.8891 153.534 30.7661 177.449 28.8562 191.151C28.4921 193.763 29.2948 193.492 30.126 190.719C31.9203 184.74 37.1724 172.738 39.8746 168.445C48.7655 154.313 57.2408 144.856 68.5683 136.429C73.0842 133.069 76.0383 130.394 76.0428 129.661C76.0486 128.812 87.3325 112.692 88.9974 111.152C89.2596 110.91 90.8752 109.028 92.5869 106.969C104.518 92.6307 123.637 77.2106 141.751 67.3189C148.939 63.3936 151.694 62.0921 159.992 58.7024C171.855 53.8574 186.131 49.8565 197.353 48.2315C200.133 47.829 203.496 47.3222 204.826 47.1055C206.155 46.8887 209.221 46.594 211.638 46.4507C218.501 46.0447 221.106 45.7259 220.858 45.3234C220.496 44.7375 210.543 40.0588 209.656 40.0588C209.386 40.0588 208.041 39.5473 206.666 38.9235C200.685 36.2069 198.452 34.9593 198.452 34.3354C198.452 33.7105 207.848 28.6844 209.11 28.635C210.555 28.5777 219.873 24.1204 220.124 23.3658C220.361 22.6548 213.31 22.8532 204.826 23.7958ZM309.819 116.858C309.706 116.97 307.943 117.258 305.899 117.498C298.97 118.311 290.253 120.339 284.821 122.404C283.492 122.91 281.909 123.484 281.305 123.68C270.575 127.166 255.257 137.358 244.604 148.1C237.468 155.294 228.029 167.991 226.808 172.033C226.611 172.685 225.529 175.279 224.405 177.795C222.278 182.553 221.797 183.792 219.953 189.288C216.582 199.334 215.673 204.685 214.495 221.422C212.782 245.76 206.646 261.763 193.292 276.721C151.57 323.451 75.7234 308.904 54.4813 250.099C52.5921 244.87 51.9486 246.193 53.3764 252.367C53.7245 253.869 54.3291 256.882 54.7206 259.061C55.1122 261.239 55.6939 263.913 56.0145 265.003C56.3351 266.092 56.8423 267.875 57.1412 268.965C62.7276 289.322 72.8712 310.356 78.5699 313.402C100.274 325.002 121.553 329.713 142.191 327.486C172.365 324.23 198.57 309.408 216.474 285.469C219.714 281.135 225.044 272.537 225.044 271.641C225.044 271.352 226.132 268.761 227.461 265.885C233.441 252.943 235.731 242.638 237.345 221.422C237.832 215.007 238.426 208.964 238.661 207.997C238.898 207.028 239.498 204.458 239.995 202.285C242.101 193.071 247.445 181.663 253.303 173.88C256.708 169.356 262.389 162.947 264.488 161.263C265.639 160.34 267.669 158.673 268.998 157.56C282.431 146.316 300.145 140.331 320.205 140.259C330.462 140.222 331.752 140.374 340.842 142.679C365.072 148.823 385.84 167.066 395.766 190.926C405.004 213.135 404.044 245.176 393.159 277.988C390.025 287.432 389.364 289.143 386.313 295.697C385.611 297.207 385.036 298.536 385.036 298.653C385.036 299.209 379.332 309.305 376.74 313.333C357.381 343.438 336.122 363.258 306.253 379.05C302.69 380.934 299.327 382.615 298.781 382.787C298.235 382.958 296.563 383.658 295.066 384.342C290.472 386.442 278.478 390.766 275.591 391.365C274.745 391.54 272.371 392.183 270.316 392.796C261.827 395.323 251.458 397.051 238.45 398.106L232.296 398.605V410.051V421.495L236.912 421.362C239.45 421.289 243.999 420.942 247.021 420.591C250.043 420.241 253.504 419.843 254.713 419.706C259.843 419.128 281.298 414.392 282.689 413.532C282.864 413.423 284.994 412.743 287.422 412.021C293.011 410.358 302.912 406.468 309.371 403.399C312.114 402.094 314.436 401.026 314.53 401.026C315.213 401.026 332.764 390.856 334.27 389.59C334.753 389.182 335.894 388.423 336.805 387.904C352.103 379.18 381.395 349.823 391.353 333.235C392.007 332.145 392.904 330.759 393.346 330.153C396.692 325.573 403.231 313.569 407.014 305.062C408.253 302.277 409.675 299.108 410.176 298.018C410.676 296.929 411.243 295.543 411.434 294.937C411.625 294.332 412.201 292.747 412.712 291.416C423.217 264.061 427.7 227.091 423.2 204.915C422.709 202.493 422.136 199.676 421.928 198.652C417.257 175.747 401.977 152.459 381.74 137.404C380.047 136.146 377.92 134.514 377.011 133.78C371.681 129.473 355.737 122.401 345.718 119.9C340.122 118.503 338.963 118.312 328.815 117.096C325.14 116.657 310.207 116.469 309.819 116.858Z" fill="white"/>
<path fill-rule="evenodd" clip-rule="evenodd" d="M227.461 22.8853L225.704 23.1112V34.3354V45.5608L233.836 46.0906C292.627 49.9195 341.662 78.1211 373.395 126.354C376.821 131.561 378.353 133.494 379.817 134.459C393.357 143.38 408.732 161.204 414.963 175.201C415.447 176.291 416.037 177.532 416.272 177.96C417.001 179.286 420.527 188.526 421.048 190.48C421.32 191.498 421.735 192.451 421.97 192.597C422.205 192.743 422.401 193.394 422.404 194.047C422.408 194.698 422.603 195.528 422.837 195.89C423.733 197.279 422.481 188.148 420.695 180.264C420.476 179.295 419.972 177.018 419.576 175.201C418.005 167.995 412.53 151.22 409.877 145.487C409.54 144.761 407.932 141.229 406.302 137.638C386.865 94.8072 349.31 58.2815 304.867 38.9797C295.707 35.0017 278.88 29.2864 273.614 28.3644C272.646 28.1958 270.371 27.681 268.559 27.2211C266.745 26.7624 263.383 26.0893 261.087 25.7281C258.79 25.3657 255.056 24.7786 252.789 24.4219C245.982 23.3543 230.934 22.4415 227.461 22.8853ZM204.416 32.058C199.719 34.1611 199.696 34.3182 203.823 36.2058C209.194 38.6632 209.002 38.732 209.002 34.3721C209.002 29.9285 209.081 29.9687 204.416 32.058ZM120.653 117.149C110.272 118.441 100.989 120.739 92.641 124.082C87.3339 126.207 76.9694 131.622 74.9416 133.328C74.4584 133.735 73.0741 134.743 71.865 135.568C53.0023 148.441 37.5116 170.071 31.0274 192.589C30.6095 194.042 30.0862 195.83 29.8664 196.561C23.3903 218.036 26.3787 255.194 37.1245 286.801C44.1777 307.548 60.794 337.835 70.3284 347.321C70.4498 347.443 72.023 349.324 73.8241 351.503C102.969 386.755 154.385 415.351 196.474 419.715C198.045 419.878 200.419 420.191 201.749 420.41C207.133 421.296 217.558 421.835 218.246 421.262C218.806 420.798 218.888 419.046 218.788 409.66L218.671 398.605L214.935 398.259C164.39 393.573 124.686 373.948 93.178 338.077C76.4255 319.005 60.2249 289.132 55.8144 269.185C55.6003 268.216 55.1091 266.334 54.7209 265.003C50.0012 248.767 48.428 222.421 51.2493 206.896C54.2915 190.159 63.8569 172.8 75.9149 162.131C77.5041 160.725 79.0613 159.323 79.3762 159.016C95.089 143.703 129.537 135.821 152.08 142.383C153.169 142.699 154.948 143.218 156.036 143.534C178.349 150.025 199.669 169.599 207.928 191.177C208.411 192.438 208.99 193.866 209.215 194.35C209.96 195.952 212.234 204 212.511 206.016C213.269 211.517 213.816 211.598 214.486 206.311C215.249 200.286 218.041 189.772 220.437 183.911C222.211 179.569 222.221 179.546 223.67 176.421C225.296 172.916 225.292 172.976 224.152 170.892C212.252 149.114 188.876 129.41 166.585 122.368C150.488 117.282 134.328 115.446 120.653 117.149ZM237.848 233.749C237.331 239.177 234.05 252.914 231.907 258.62C230.636 262.004 230.652 261.967 228.385 266.919C226.129 271.849 226.177 272.106 230.674 279.089C260.943 326.098 320.86 341.45 370.442 314.898C377.199 311.28 377.438 310.98 383.543 298.459C391.808 281.51 398.048 260.301 399.344 244.754C399.498 242.912 399.484 242.881 399.148 244.314C398.949 245.161 398.462 246.449 398.067 247.175C397.672 247.901 397.348 248.722 397.346 248.999C397.345 249.277 396.74 250.96 396.003 252.741C372.868 308.597 301.707 322.315 260.317 278.899C256.472 274.866 249.658 266.134 249.658 265.239C249.658 265.063 249.27 264.372 248.795 263.704C245.013 258.385 239.688 243.694 238.095 234.189C237.994 233.584 237.882 233.385 237.848 233.749Z" fill="#1E376C"/>
<path fill-rule="evenodd" clip-rule="evenodd" d="M224.895 22.4827C223.733 24.1443 223.802 44.977 224.973 46.1501C225.667 46.845 226.813 46.9975 233.11 47.2349C281.824 49.0685 329.024 72.4733 360.261 110.284C364.481 115.393 372.431 126.276 373.598 128.539C374.651 130.584 377.169 133.371 379.24 134.781C397.636 147.315 412.544 167.176 419.703 188.692C421.526 194.171 423.717 202.403 423.717 203.779C423.717 204.222 424.036 204.852 424.425 205.177C426.569 206.959 422.686 180.588 419.118 169.131C418.537 167.264 417.762 164.648 417.396 163.315C415.213 155.354 409.08 140.067 404.72 131.715C391.885 107.13 376.95 88.015 356.772 70.3495C350.769 65.0941 338.915 56.2734 333.87 53.3091C332.88 52.7277 331.974 52.1257 331.852 51.9686C331.581 51.6177 327.549 49.2302 322.183 46.2429C318.164 44.0057 308.002 39.0461 304.601 37.6608C303.03 37.0209 301.348 36.3317 300.865 36.1299C300.382 35.9269 299.096 35.4189 298.008 35.0004C296.921 34.5818 295.535 34.0452 294.932 33.8066C290.804 32.1794 278.475 28.3665 274.272 27.4182C272.702 27.0627 270.724 26.6109 269.878 26.4125C258.848 23.8266 246.29 22.2143 233.399 21.7304L225.626 21.438L224.895 22.4827ZM242.68 23.3496C245.971 23.5835 250.521 24.0663 252.789 24.4218C255.056 24.7784 258.79 25.3655 261.087 25.7279C263.383 26.0891 266.745 26.7623 268.559 27.221C270.371 27.6808 272.647 28.1957 273.614 28.3643C278.88 29.2862 295.707 35.0015 304.867 38.9795C349.31 58.2813 386.865 94.807 406.302 137.637C407.932 141.229 409.54 144.761 409.877 145.487C412.53 151.219 418.005 167.995 419.576 175.201C419.973 177.017 420.476 179.295 420.695 180.264C422.481 188.148 423.733 197.279 422.837 195.89C422.603 195.528 422.408 194.698 422.405 194.046C422.401 193.394 422.205 192.743 421.971 192.597C421.735 192.451 421.32 191.498 421.048 190.48C420.527 188.526 417.001 179.286 416.272 177.96C416.037 177.532 415.448 176.29 414.963 175.201C408.732 161.204 393.357 143.38 379.817 134.459C378.353 133.494 376.821 131.561 373.395 126.354C341.663 78.1209 292.627 49.9194 233.836 46.0904L225.704 45.5606V34.3353V23.1111L227.461 22.8852C229.558 22.6168 234.521 22.7682 242.68 23.3496ZM205.046 31.0694C203.112 31.9294 201.233 32.7505 200.87 32.8927C198.192 33.9442 198.836 34.7837 204.149 37.1585C209.617 39.6034 210.078 39.5265 210.162 36.1597C210.351 28.5282 210.475 28.6521 205.046 31.0694ZM209.002 34.372C209.002 38.7319 209.194 38.663 203.823 36.2056C199.696 34.3181 199.719 34.161 204.416 32.0579C209.081 29.9685 209.002 29.9284 209.002 34.372ZM123.51 115.743C112.785 116.803 103.046 118.99 94.0632 122.356C88.676 124.374 78.3492 129.646 76.0409 131.556C74.9531 132.457 71.9853 134.708 69.448 136.557C59.8678 143.54 50.1536 153.653 44.1767 162.866C40.2516 168.915 39.2028 170.734 36.7983 175.675C33.9782 181.47 32.0019 186.555 30.5294 191.809C29.9707 193.801 29.3982 195.617 29.2573 195.847C29.1154 196.076 28.8119 197.219 28.5829 198.388C28.3528 199.556 27.6566 202.89 27.036 205.796C24.3613 218.307 25.354 245.896 29.0146 260.821C29.2528 261.79 29.752 264.067 30.1252 265.883C30.4985 267.699 31.0745 270.176 31.4065 271.385C31.7374 272.596 32.2343 274.478 32.5103 275.568C34.3663 282.901 38.2616 293.841 42.3848 303.3C44.108 307.252 49.9555 319.032 50.599 319.847C50.8074 320.112 51.5768 321.452 52.3085 322.824C66.1515 348.805 94.7399 377.73 123.54 394.893C150.918 411.21 188.705 422.596 215.476 422.596C221.065 422.596 220.698 423.47 220.724 410.101C220.752 396.419 221.236 397.458 214.613 397.016C180.321 394.721 146.494 382.186 120.665 362.2C102.947 348.489 91.6759 336.32 78.142 316.287C76.997 314.592 75.1833 311.948 74.1127 310.41C70.3308 304.981 62.9707 289.099 59.8014 279.529C59.2804 277.956 58.6529 276.074 58.4067 275.347C57.9751 274.072 56.8621 270.239 55.5958 265.663C50.2326 246.286 49.2708 215.12 53.5989 200.983C62.6352 171.47 82.3979 151.837 111.251 143.713C119.087 141.507 136.405 140.669 145.174 142.073C178.617 147.429 207.186 175.983 211.86 208.726C212.65 214.266 212.766 214.819 213.143 214.819C213.808 214.819 214.468 212.455 214.925 208.437C215.905 199.818 219.682 186.626 223.535 178.368C226.093 172.887 226.074 171.917 223.318 167.371C207.378 141.089 180.631 122.377 152.08 117.534C149.3 117.063 145.939 116.463 144.609 116.203C141.574 115.606 127.899 115.308 123.51 115.743ZM142.631 117.112C151.399 118.124 157.139 119.383 166.585 122.368C188.876 129.41 212.252 149.114 224.152 170.892C225.292 172.976 225.296 172.916 223.67 176.421C222.221 179.546 222.212 179.569 220.437 183.91C218.041 189.771 215.249 200.286 214.486 206.311C213.816 211.598 213.269 211.517 212.511 206.016C212.234 204 209.96 195.952 209.215 194.35C208.99 193.866 208.411 192.438 207.928 191.177C199.669 169.599 178.349 150.024 156.036 143.534C154.949 143.217 153.169 142.699 152.08 142.383C129.538 135.821 95.0891 143.703 79.3763 159.016C79.0614 159.323 77.5042 160.725 75.9149 162.131C63.8569 172.8 54.2916 190.159 51.2493 206.895C48.4281 222.421 50.0013 248.767 54.721 265.003C55.1091 266.334 55.6003 268.216 55.8145 269.185C62.8402 300.961 90.4129 341.211 120.214 363.196C148.924 384.374 176.907 394.733 214.935 398.259L218.671 398.605L218.788 409.659C218.888 419.046 218.806 420.798 218.246 421.262C217.558 421.834 207.133 421.295 201.749 420.41C200.419 420.191 198.045 419.878 196.474 419.715C154.385 415.351 102.969 386.755 73.8242 351.503C72.0231 349.324 70.4499 347.442 70.3285 347.321C68.382 345.385 58.5419 331.276 54.8664 325.151C36.8281 295.098 26.2975 257.703 26.3937 224.038C26.4166 215.835 28.1215 202.348 29.8665 196.561C30.0863 195.83 30.6096 194.042 31.0275 192.589C37.5116 170.071 53.0023 148.441 71.8651 135.568C73.0742 134.743 74.4585 133.735 74.9417 133.328C76.9695 131.622 87.334 126.207 92.6411 124.082C107.71 118.048 127.19 115.332 142.631 117.112ZM237.387 231.651C237.129 232.926 236.528 236.445 236.05 239.471C234.529 249.12 231.18 259.972 227.445 267.349C225.082 272.018 225.303 272.845 231.352 281.95C248.058 307.098 276.221 324.452 306.346 328.158C316.666 329.427 334.001 328.787 341.083 326.873C342.413 326.515 344.885 325.9 346.577 325.508C357.78 322.915 373.481 315.625 377.175 311.304C378.712 309.504 385.544 296.61 387.244 292.295C387.769 290.964 388.787 288.389 389.508 286.573C393.774 275.804 397.171 263.809 398.919 253.337C400.234 245.466 400.996 237.478 400.644 235.289L400.29 233.088L399.729 235.729C398.16 243.104 396.384 249.281 394.919 252.457C387.364 268.828 379.324 279.258 367.857 287.56C365.323 289.395 361.686 291.856 361.509 291.856C361.402 291.856 360.372 292.434 359.22 293.141C341.669 303.916 314.35 306.383 293.393 299.085C285.246 296.248 273.54 289.757 269.19 285.666C268.691 285.196 268.142 284.813 267.972 284.813C267.437 284.813 258.698 275.914 256.657 273.29C246.399 260.108 242.108 249.99 238.917 231.453C238.493 228.99 237.912 229.065 237.387 231.651ZM239.624 240.792C241.716 249.359 245.736 259.401 248.795 263.703C249.27 264.372 249.658 265.062 249.658 265.239C249.658 266.133 256.472 274.866 260.317 278.899C301.707 322.315 372.868 308.597 396.003 252.741C396.741 250.96 397.345 249.276 397.346 248.999C397.349 248.721 397.673 247.9 398.068 247.174C398.463 246.449 398.949 245.161 399.148 244.313C399.484 242.881 399.498 242.912 399.344 244.754C397.826 262.962 390.325 286.223 379.285 306.958C376.878 311.479 372.943 314.217 361.741 319.167C337.967 329.675 309.671 330.735 285.051 322.038C262.442 314.053 243.608 299.178 230.674 279.089C226.177 272.106 226.129 271.849 228.385 266.919C230.653 261.967 230.637 262.004 231.907 258.62C234.05 252.914 237.331 239.177 237.848 233.749C237.882 233.385 237.994 233.583 238.095 234.189C238.197 234.793 238.884 237.766 239.624 240.792Z" fill="#000D20"/>
<ellipse cx="179.765" cy="38.4154" rx="6.87" ry="6.30703" fill="#1E376C"/>
</svg>
