<svg width="78" height="78" viewBox="0 0 78 78" fill="none" xmlns="http://www.w3.org/2000/svg">
<path d="M7.78535 32.5343L18.7824 43.5319L43.5298 18.7834L32.5288 7.78574L7.78535 32.5343ZM57.2761 54.5296L38.0273 35.2798L35.282 38.0331L54.5308 57.2829L57.2761 54.5296ZM62.7786 60.0323L60.0293 62.7817L66.9005 69.6533C67.2672 70.0075 67.7584 70.2034 68.2682 70.199C68.778 70.1946 69.2656 69.9901 69.6261 69.6296C69.9866 69.2691 70.1911 68.7814 70.1955 68.2716C70.2 67.7617 70.004 67.2706 69.6498 66.9039L62.7786 60.0323ZM21.2945 8.01907L27.0303 2.27914C27.7525 1.55659 28.61 0.983404 29.5538 0.592342C30.4976 0.20128 31.5091 0 32.5307 0C33.5523 0 34.5639 0.20128 35.5077 0.592342C36.4515 0.983404 37.309 1.55659 38.0312 2.27914L49.0283 13.2807C50.4863 14.7392 51.3054 16.7171 51.3054 18.7795C51.3054 20.8418 50.4863 22.8198 49.0283 24.2783L43.5298 29.7771L75.1522 61.4012C76.0551 62.3041 76.7713 63.3759 77.2599 64.5556C77.7485 65.7353 78 66.9997 78 68.2766C78 69.5535 77.7485 70.8179 77.2599 71.9976C76.7713 73.1773 76.0551 74.2492 75.1522 75.1521C74.2494 76.055 73.1775 76.7712 71.9979 77.2598C70.8183 77.7485 69.5539 78 68.2771 78C67.0003 78 65.736 77.7485 64.5563 77.2598C63.3767 76.7712 62.3048 76.055 61.402 75.1521L29.7795 43.5281L24.281 49.0269C22.8225 50.485 20.8447 51.3041 18.7824 51.3041C16.7202 51.3041 14.7424 50.485 13.2839 49.0269L2.27903 38.0331C1.55651 37.3109 0.983355 36.4533 0.592312 35.5095C0.20127 34.5656 0 33.554 0 32.5324C0 31.5107 0.20127 30.4991 0.592312 29.5553C0.983355 28.6114 1.55651 27.7539 2.27903 27.0316L8.01478 21.2995C7.4942 20.2105 7.32422 18.9868 7.52829 17.7972C7.73236 16.6076 8.30042 15.5105 9.15415 14.6573L14.6566 9.16239C15.5097 8.30861 16.6067 7.74052 17.7963 7.53644C18.9859 7.33237 20.2095 7.50235 21.2984 8.02296L21.2945 8.01907Z" fill="#B05B5D"/>
</svg>
