<svg width="78" height="78" viewBox="0 0 78 78" fill="none" xmlns="http://www.w3.org/2000/svg">
<path d="M76.5375 70.1509L56.0625 49.5472C55.0875 48.566 53.625 48.0755 52.1625 48.0755C56.0625 43.1698 58.5 36.3019 58.5 29.434C58.5 13.2453 45.3375 0 29.25 0C13.1625 0 0 13.2453 0 29.434C0 45.6226 13.1625 58.8679 29.25 58.8679C36.075 58.8679 42.9 56.4151 47.775 52C47.775 53.4717 47.775 54.9434 49.2375 55.9245L69.7125 76.5283C70.6875 77.5094 72.15 78 73.125 78C74.1 78 75.5625 77.5094 76.5375 76.5283C78.4875 75.0566 78.4875 72.1132 76.5375 70.1509ZM29.25 51.5094C17.0625 51.5094 7.3125 41.6981 7.3125 29.434C7.3125 17.1698 17.0625 7.35849 29.25 7.35849C41.4375 7.35849 51.1875 17.1698 51.1875 29.434C51.1875 41.6981 41.4375 51.5094 29.25 51.5094Z" fill="#9A4EA4"/>
</svg>
