<svg width="59" height="59" viewBox="0 0 59 59" fill="none" xmlns="http://www.w3.org/2000/svg">
<path d="M50.3221 4.91685H8.67796C8.20984 4.91035 7.74502 4.99612 7.31006 5.16928C6.87509 5.34243 6.4785 5.59958 6.14292 5.92602C5.80734 6.25247 5.53936 6.64182 5.35427 7.07185C5.16919 7.50187 5.07062 7.96414 5.06421 8.43226V50.5681C5.07062 51.0362 5.16919 51.4985 5.35427 51.9285C5.53936 52.3585 5.80734 52.7479 6.14292 53.0743C6.4785 53.4008 6.87509 53.6579 7.31006 53.8311C7.74502 54.0042 8.20984 54.09 8.67796 54.0835H50.3221C50.7902 54.09 51.2551 54.0042 51.69 53.8311C52.125 53.6579 52.5216 53.4008 52.8572 53.0743C53.1927 52.7479 53.4607 52.3585 53.6458 51.9285C53.8309 51.4985 53.9295 51.0362 53.9359 50.5681V8.43226C53.9295 7.96414 53.8309 7.50187 53.6458 7.07185C53.4607 6.64182 53.1927 6.25247 52.8572 5.92602C52.5216 5.59958 52.125 5.34243 51.69 5.16928C51.2551 4.99612 50.7902 4.91035 50.3221 4.91685ZM19.888 46.0693H12.513V23.9443H19.888V46.0693ZM16.2005 20.8468C15.1834 20.8468 14.2079 20.4428 13.4887 19.7236C12.7695 19.0044 12.3655 18.029 12.3655 17.0118C12.3655 15.9947 12.7695 15.0193 13.4887 14.3001C14.2079 13.5809 15.1834 13.1768 16.2005 13.1768C16.7405 13.1156 17.2875 13.1691 17.8054 13.3339C18.3234 13.4987 18.8007 13.771 19.2062 14.133C19.6116 14.4951 19.936 14.9387 20.1581 15.4348C20.3802 15.9309 20.495 16.4683 20.495 17.0118C20.495 17.5554 20.3802 18.0928 20.1581 18.5889C19.936 19.085 19.6116 19.5286 19.2062 19.8907C18.8007 20.2527 18.3234 20.525 17.8054 20.6898C17.2875 20.8546 16.7405 20.9081 16.2005 20.8468ZM46.4871 46.0693H39.1121V34.1956C39.1121 31.221 38.055 29.2789 35.3755 29.2789C34.5462 29.285 33.7387 29.5451 33.0618 30.0242C32.3849 30.5033 31.8711 31.1784 31.5896 31.9585C31.3972 32.5363 31.3139 33.1448 31.3438 33.7531V46.0448H23.9688V23.9198H31.3438V27.0418C32.0138 25.8793 32.9882 24.9216 34.1621 24.2718C35.3361 23.622 36.665 23.3048 38.0059 23.3543C42.9225 23.3543 46.4871 26.5256 46.4871 33.3352V46.0693Z" fill="white"/>
</svg>
