<svg width="549" height="162" viewBox="0 0 549 162" fill="none" xmlns="http://www.w3.org/2000/svg">
<path d="M49.6035 60.464C49.6035 60.9333 48.3022 61.3173 45.6995 61.616C43.0968 61.872 40.4728 62 37.8275 62C35.2248 62 33.5608 61.8933 32.8355 61.68C32.1102 61.424 31.7475 61.0187 31.7475 60.464V20.656C31.7475 19.7173 32.9848 18.8 35.4595 17.904C37.9342 16.9653 40.7075 16.496 43.7795 16.496C46.5102 16.496 48.3022 17.072 49.1555 18.224C49.4542 18.6507 49.6035 19.0773 49.6035 19.504V60.464ZM93.0195 40.752V60.464C93.0195 60.9333 91.8035 61.3173 89.3715 61.616C86.9395 61.872 84.4222 62 81.8195 62C79.2595 62 77.5955 61.8933 76.8275 61.68C76.1022 61.424 75.7395 61.0187 75.7395 60.464V40.112C75.7395 38.192 75.6542 36.9333 75.4835 36.336C75.3555 35.7387 75.2275 35.2053 75.0995 34.736C74.8008 33.9253 74.2675 33.52 73.4995 33.52C72.3048 33.52 71.7075 34.096 71.7075 35.248V60.464C71.7075 60.9333 70.4915 61.3173 68.0595 61.616C65.6702 61.872 63.1742 62 60.5715 62C58.0115 62 56.3475 61.8933 55.5795 61.68C54.8115 61.424 54.4275 61.0187 54.4275 60.464V28.912C54.4275 28.016 55.6435 27.12 58.0755 26.224C60.5502 25.328 63.1528 24.88 65.8835 24.88C68.6142 24.88 70.1502 25.6693 70.4915 27.248L71.0675 30.064H71.5155C72.7528 27.5893 74.8862 25.8613 77.9155 24.88C79.1528 24.496 80.5182 24.304 82.0115 24.304C86.3208 24.304 89.2222 25.6053 90.7155 28.208C92.2515 30.768 93.0195 34.9493 93.0195 40.752ZM136.082 40.752V60.464C136.082 60.9333 134.866 61.3173 132.434 61.616C130.002 61.872 127.485 62 124.882 62C122.322 62 120.658 61.8933 119.89 61.68C119.165 61.424 118.802 61.0187 118.802 60.464V40.112C118.802 38.192 118.717 36.9333 118.546 36.336C118.418 35.7387 118.29 35.2053 118.162 34.736C117.863 33.9253 117.33 33.52 116.562 33.52C115.367 33.52 114.77 34.096 114.77 35.248V60.464C114.77 60.9333 113.554 61.3173 111.122 61.616C108.733 61.872 106.237 62 103.634 62C101.074 62 99.41 61.8933 98.642 61.68C97.874 61.424 97.49 61.0187 97.49 60.464V28.912C97.49 28.016 98.706 27.12 101.138 26.224C103.613 25.328 106.215 24.88 108.946 24.88C111.677 24.88 113.213 25.6693 113.554 27.248L114.13 30.064H114.578C115.815 27.5893 117.949 25.8613 120.978 24.88C122.215 24.496 123.581 24.304 125.074 24.304C129.383 24.304 132.285 25.6053 133.778 28.208C135.314 30.768 136.082 34.9493 136.082 40.752ZM160.265 62.576C157.065 62.576 154.313 62.2987 152.009 61.744C149.705 61.1893 147.614 60.208 145.737 58.8C141.854 55.984 139.913 50.736 139.913 43.056C139.913 36.2293 141.897 31.344 145.865 28.4C149.577 25.6693 154.377 24.304 160.265 24.304C162.782 24.304 164.937 24.432 166.729 24.688C168.521 24.9013 170.334 25.392 172.169 26.16C174.046 26.928 175.539 27.9733 176.649 29.296C177.801 30.6187 178.739 32.4533 179.465 34.8C180.19 37.104 180.553 39.856 180.553 43.056C180.553 49.5413 178.718 54.4267 175.049 57.712C171.379 60.9547 166.451 62.576 160.265 62.576ZM158.025 50.096C158.323 51.632 158.622 52.5493 158.921 52.848C159.262 53.1467 159.689 53.296 160.201 53.296C160.755 53.296 161.182 53.1467 161.481 52.848C161.822 52.5493 162.121 51.632 162.377 50.096C162.675 48.56 162.825 46.64 162.825 44.336C162.825 41.9893 162.761 40.1973 162.633 38.96C162.547 37.68 162.419 36.6987 162.249 36.016C162.121 35.3333 161.929 34.8 161.673 34.416C161.289 33.8613 160.819 33.584 160.265 33.584C159.753 33.584 159.326 33.7547 158.985 34.096C158.643 34.3947 158.323 35.3333 158.025 36.912C157.726 38.448 157.577 40.6453 157.577 43.504C157.577 46.3627 157.726 48.56 158.025 50.096ZM182.445 29.424C182.445 28.9973 183.064 28.4427 184.301 27.76C185.538 27.0347 187.224 26.3733 189.357 25.776C191.49 25.1787 193.581 24.88 195.629 24.88C199.768 24.88 201.901 25.8827 202.029 27.888L203.629 48.24H204.461L205.869 28.912C205.954 27.8453 207.426 26.9067 210.285 26.096C213.144 25.2853 215.661 24.88 217.837 24.88C220.013 24.88 221.634 25.072 222.701 25.456C223.81 25.84 224.514 26.2453 224.813 26.672C225.112 27.056 225.261 27.3973 225.261 27.696C225.261 27.9947 224.344 30.192 222.509 34.288C220.717 38.384 217.112 47.1093 211.693 60.464C211.266 61.488 207.789 62 201.261 62C199.213 62 197.869 61.8933 197.229 61.68C196.589 61.424 196.162 61.0187 195.949 60.464C193.005 53.04 190.018 46.064 186.989 39.536C183.96 32.9653 182.445 29.5947 182.445 29.424ZM238.713 62.576C234.83 62.576 231.779 61.6587 229.561 59.824C228.665 59.056 227.875 57.9253 227.193 56.432C226.553 54.9387 226.233 53.1893 226.233 51.184C226.233 49.1787 226.702 47.4293 227.641 45.936C228.622 44.4427 229.795 43.2907 231.161 42.48C232.526 41.6693 234.126 41.008 235.961 40.496C238.734 39.7707 241.785 39.408 245.113 39.408H247.225C247.225 37.6587 246.627 36.4213 245.433 35.696C244.921 35.3973 244.131 35.248 243.065 35.248C242.041 35.248 240.782 35.5253 239.289 36.08C237.838 36.6347 236.622 37.2107 235.641 37.808C234.659 38.3627 233.998 38.64 233.657 38.64C232.889 38.64 231.843 37.6373 230.521 35.632C229.198 33.584 228.536 31.728 228.536 30.064C228.536 29.5093 229.326 28.784 230.905 27.888C232.483 26.992 234.702 26.1813 237.561 25.456C240.462 24.688 243.278 24.304 246.009 24.304C248.739 24.304 251.086 24.5387 253.049 25.008C255.054 25.4347 256.675 25.968 257.913 26.608C259.193 27.248 260.259 28.1013 261.113 29.168C262.009 30.2347 262.67 31.1947 263.097 32.048C263.566 32.9013 263.907 34.0107 264.121 35.376C264.419 36.9547 264.569 38.896 264.569 41.2V60.464C264.569 60.9333 263.417 61.3173 261.113 61.616C258.851 61.872 256.59 62 254.329 62C252.11 62 250.659 61.936 249.977 61.808C249.337 61.68 248.953 61.5307 248.825 61.36C248.697 61.1893 248.59 60.8907 248.505 60.464L247.993 56.816H247.481C246.414 60.656 243.491 62.576 238.713 62.576ZM247.289 51.952V44.464C246.179 44.464 245.283 44.9333 244.601 45.872C243.918 46.8107 243.577 47.8773 243.577 49.072C243.577 51.888 244.217 53.296 245.497 53.296C246.051 53.296 246.478 53.168 246.777 52.912C247.118 52.6133 247.289 52.2933 247.289 51.952ZM294.205 61.424C293.437 62.1493 291.687 62.512 288.957 62.512C286.226 62.512 283.965 62.3413 282.173 62C280.381 61.616 278.674 60.8907 277.053 59.824C273.938 57.7333 272.381 53.3813 272.381 46.768V36.784H269.181C268.711 36.784 268.306 36.2933 267.965 35.312C267.623 34.3307 267.453 32.9867 267.453 31.28C267.453 29.5733 267.709 28.08 268.221 26.8C268.775 25.4773 269.479 24.816 270.333 24.816H272.381V17.072C272.381 15.7493 273.661 14.6827 276.22 13.872C278.823 13.0613 281.362 12.656 283.837 12.656C287.719 12.656 289.661 13.616 289.661 15.536V24.816H294.397C295.506 24.816 296.061 26.416 296.061 29.616C296.061 31.7067 295.805 33.4347 295.293 34.8C294.823 36.1227 294.205 36.784 293.437 36.784H289.661V48.496C289.661 49.648 290.151 50.48 291.133 50.992C292.114 51.4613 292.967 51.696 293.693 51.696C294.461 51.696 294.93 52.0587 295.101 52.784C295.271 53.5093 295.357 54.5973 295.357 56.048C295.357 58.9067 294.973 60.6987 294.205 61.424ZM316.76 47.536C316.76 50.3093 318.082 51.696 320.728 51.696C322.264 51.696 324.269 51.184 326.744 50.16C329.218 49.0933 330.52 48.56 330.648 48.56C331.458 48.56 332.525 49.776 333.847 52.208C335.17 54.64 335.832 56.432 335.832 57.584C335.832 59.248 334.125 60.5067 330.712 61.36C327.298 62.2133 323.949 62.64 320.664 62.64C317.421 62.64 314.69 62.384 312.472 61.872C310.296 61.36 308.504 60.72 307.095 59.952C305.73 59.1413 304.514 58.16 303.448 57.008C302.424 55.856 301.656 54.768 301.144 53.744C300.632 52.6773 300.226 51.504 299.928 50.224C299.501 48.3467 299.288 46.4053 299.288 44.4C299.288 36.6347 301.314 31.28 305.368 28.336C307.373 26.8427 309.613 25.7973 312.088 25.2C314.562 24.6027 317.485 24.304 320.856 24.304C331.65 24.304 337.048 28.0587 337.048 35.568C337.048 43.5467 330.989 47.536 318.872 47.536H316.76ZM316.632 38.192V42.416C317.869 42.416 318.872 41.9253 319.64 40.944C320.45 39.9627 320.856 38.768 320.856 37.36C320.856 34.8 320.194 33.52 318.872 33.52C317.378 33.52 316.632 35.0773 316.632 38.192ZM373.416 60.144C373.416 60.784 372.029 61.2533 369.256 61.552C366.525 61.8507 363.923 62 361.448 62C358.973 62 357.373 61.8507 356.648 61.552C355.923 61.2533 355.56 60.784 355.56 60.144V19.568C355.56 18.4587 356.115 17.6693 357.224 17.2C358.333 16.7307 360.424 16.496 363.496 16.496H387.24C388.136 16.496 388.584 18.1173 388.584 21.36C388.584 24.56 388.371 27.0133 387.944 28.72C387.56 30.384 387.048 31.216 386.408 31.216L373.416 30.576V34.928C379.091 34.672 382.888 34.544 384.808 34.544C385.448 34.544 385.875 34.8853 386.088 35.568C386.344 36.2507 386.472 37.5733 386.472 39.536C386.472 41.456 386.259 43.312 385.832 45.104C385.405 46.8533 384.808 47.728 384.04 47.728L373.416 47.344V60.144ZM410.02 41.776V60.464C410.02 60.9333 408.804 61.3173 406.372 61.616C403.983 61.872 401.487 62 398.884 62C396.324 62 394.66 61.8933 393.892 61.68C393.124 61.424 392.74 61.0187 392.74 60.464V28.912C392.74 28.1013 393.913 27.2267 396.26 26.288C398.649 25.3493 401.231 24.88 404.004 24.88C406.82 24.88 408.399 25.648 408.74 27.184L409.38 30.128H409.828C410.425 28.5067 411.855 27.1413 414.116 26.032C416.377 24.88 418.639 24.304 420.9 24.304C423.161 24.304 424.74 24.6667 425.636 25.392C426.575 26.1173 427.044 27.056 427.044 28.208C427.044 29.3173 426.959 30.7467 426.788 32.496C426.617 34.2453 426.191 36.144 425.508 38.192C424.868 40.24 424.015 41.264 422.948 41.264C422.521 41.264 421.177 40.944 418.916 40.304C416.655 39.664 414.777 39.344 413.284 39.344C411.833 39.344 410.916 39.5573 410.532 39.984C410.191 40.4107 410.02 41.008 410.02 41.776ZM449.952 62.576C446.752 62.576 444 62.2987 441.696 61.744C439.392 61.1893 437.301 60.208 435.424 58.8C431.541 55.984 429.6 50.736 429.6 43.056C429.6 36.2293 431.584 31.344 435.552 28.4C439.264 25.6693 444.064 24.304 449.952 24.304C452.469 24.304 454.624 24.432 456.416 24.688C458.208 24.9013 460.021 25.392 461.856 26.16C463.733 26.928 465.227 27.9733 466.336 29.296C467.488 30.6187 468.427 32.4533 469.152 34.8C469.877 37.104 470.24 39.856 470.24 43.056C470.24 49.5413 468.405 54.4267 464.736 57.712C461.067 60.9547 456.139 62.576 449.952 62.576ZM447.712 50.096C448.011 51.632 448.309 52.5493 448.608 52.848C448.949 53.1467 449.376 53.296 449.888 53.296C450.443 53.296 450.869 53.1467 451.168 52.848C451.509 52.5493 451.808 51.632 452.064 50.096C452.363 48.56 452.512 46.64 452.512 44.336C452.512 41.9893 452.448 40.1973 452.32 38.96C452.235 37.68 452.107 36.6987 451.936 36.016C451.808 35.3333 451.616 34.8 451.36 34.416C450.976 33.8613 450.507 33.584 449.952 33.584C449.44 33.584 449.013 33.7547 448.672 34.096C448.331 34.3947 448.011 35.3333 447.712 36.912C447.413 38.448 447.264 40.6453 447.264 43.504C447.264 46.3627 447.413 48.56 447.712 50.096ZM532.357 40.88V60.464C532.357 60.9333 531.141 61.3173 528.709 61.616C526.319 61.872 523.823 62 521.221 62C518.661 62 516.997 61.8933 516.229 61.68C515.461 61.424 515.077 61.0187 515.077 60.464V42.736C515.077 36.6347 514.458 33.584 513.221 33.584C512.922 33.584 512.623 33.712 512.325 33.968C512.026 34.224 511.877 34.672 511.877 35.312V60.464C511.877 60.9333 510.661 61.3173 508.229 61.616C505.839 61.872 503.343 62 500.741 62C498.138 62 496.453 61.8933 495.685 61.68C494.959 61.424 494.597 61.0187 494.597 60.464V42.736C494.597 38 494.298 35.1627 493.701 34.224C493.402 33.7973 493.018 33.584 492.549 33.584C491.738 33.584 491.333 34.16 491.333 35.312V60.464C491.333 60.9333 490.117 61.3173 487.685 61.616C485.253 61.872 482.735 62 480.133 62C477.573 62 475.909 61.8933 475.141 61.68C474.415 61.424 474.053 61.0187 474.053 60.464V28.912C474.053 28.016 475.269 27.12 477.701 26.224C480.175 25.328 482.778 24.88 485.509 24.88C488.239 24.88 489.775 25.6693 490.117 27.248L490.693 30.064H491.141C492.378 27.632 494.426 25.904 497.285 24.88C498.479 24.496 500.015 24.304 501.893 24.304C505.647 24.304 508.378 26.224 510.085 30.064C510.639 28.784 512.026 27.504 514.245 26.224C516.463 24.944 518.917 24.304 521.605 24.304C525.829 24.304 528.666 25.6267 530.117 28.272C531.61 30.8747 532.357 35.0773 532.357 40.88ZM176.448 133.464C176.448 133.933 175.125 134.317 172.48 134.616C169.877 134.872 167.253 135 164.608 135C162.005 135 160.341 134.893 159.616 134.68C158.933 134.424 158.592 134.019 158.592 133.464V105.944H149.696C149.226 105.944 148.821 105.347 148.48 104.152C148.138 102.957 147.968 101.187 147.968 98.84C147.968 96.4507 148.224 94.3173 148.736 92.44C149.248 90.52 149.93 89.56 150.784 89.56H185.408C186.048 89.56 186.474 90.1573 186.688 91.352C186.944 92.5467 187.072 94.2747 187.072 96.536C187.072 98.7973 186.837 100.931 186.368 102.936C185.898 104.941 185.258 105.944 184.448 105.944H176.448V133.464ZM211.415 133.464V115.672C211.415 112.472 211.287 110.147 211.031 108.696C210.775 107.245 210.156 106.52 209.175 106.52C208.322 106.52 207.895 107.096 207.895 108.248V133.464C207.895 133.933 206.658 134.317 204.183 134.616C201.708 134.872 199.17 135 196.567 135C193.964 135 192.322 134.893 191.639 134.68C190.956 134.424 190.615 134.019 190.615 133.464V89.112C190.615 88.216 191.852 87.32 194.327 86.424C196.802 85.528 199.404 85.08 202.135 85.08C204.994 85.08 206.807 85.6133 207.575 86.68C207.831 87.0213 207.959 87.384 207.959 87.768V97.176L207.255 101.592H207.703C208.3 100.696 209.239 99.9067 210.519 99.224C212.908 97.944 215.511 97.304 218.327 97.304C222.38 97.304 225.111 98.6053 226.519 101.208C227.97 103.768 228.695 107.949 228.695 113.752V133.464C228.695 133.933 227.436 134.317 224.919 134.616C222.444 134.872 219.906 135 217.303 135C214.743 135 213.122 134.893 212.439 134.68C211.756 134.424 211.415 134.019 211.415 133.464ZM250.01 120.536C250.01 123.309 251.332 124.696 253.978 124.696C255.514 124.696 257.519 124.184 259.994 123.16C262.468 122.093 263.77 121.56 263.898 121.56C264.708 121.56 265.775 122.776 267.097 125.208C268.42 127.64 269.082 129.432 269.082 130.584C269.082 132.248 267.375 133.507 263.962 134.36C260.548 135.213 257.199 135.64 253.914 135.64C250.671 135.64 247.94 135.384 245.722 134.872C243.546 134.36 241.754 133.72 240.345 132.952C238.98 132.141 237.764 131.16 236.698 130.008C235.674 128.856 234.906 127.768 234.394 126.744C233.882 125.677 233.476 124.504 233.178 123.224C232.751 121.347 232.538 119.405 232.538 117.4C232.538 109.635 234.564 104.28 238.618 101.336C240.623 99.8427 242.863 98.7973 245.338 98.2C247.812 97.6027 250.735 97.304 254.106 97.304C264.9 97.304 270.298 101.059 270.298 108.568C270.298 116.547 264.239 120.536 252.122 120.536H250.01ZM249.882 111.192V115.416C251.119 115.416 252.122 114.925 252.89 113.944C253.7 112.963 254.106 111.768 254.106 110.36C254.106 107.8 253.444 106.52 252.122 106.52C250.628 106.52 249.882 108.077 249.882 111.192ZM306.474 131.736C306.389 132.973 305.727 133.827 304.49 134.296C303.295 134.765 301.119 135 297.962 135C294.805 135 292.159 134.723 290.026 134.168C287.935 133.571 286.89 132.824 286.89 131.928C286.89 130.904 288.789 124.376 292.586 112.344C296.383 100.269 298.559 93.3147 299.114 91.48C299.327 90.9253 301.034 90.4773 304.234 90.136C307.477 89.752 310.933 89.56 314.602 89.56C318.314 89.56 320.362 90.2 320.746 91.48C328.81 118.275 332.842 131.885 332.842 132.312C332.842 132.739 332.586 133.165 332.074 133.592C330.879 134.531 328.511 135 324.97 135C317.418 135 313.557 134.104 313.386 132.312L312.938 128.152H306.794L306.474 131.736ZM311.594 115.992L310.634 104.472H309.226L308.138 115.992H311.594ZM374.332 113.752V133.464C374.332 133.933 373.116 134.317 370.684 134.616C368.252 134.872 365.735 135 363.132 135C360.572 135 358.908 134.893 358.14 134.68C357.415 134.424 357.052 134.019 357.052 133.464V113.112C357.052 111.192 356.967 109.933 356.796 109.336C356.668 108.739 356.54 108.205 356.412 107.736C356.113 106.925 355.58 106.52 354.812 106.52C353.617 106.52 353.02 107.096 353.02 108.248V133.464C353.02 133.933 351.804 134.317 349.372 134.616C346.983 134.872 344.487 135 341.884 135C339.324 135 337.66 134.893 336.892 134.68C336.124 134.424 335.74 134.019 335.74 133.464V101.912C335.74 101.016 336.956 100.12 339.388 99.224C341.863 98.328 344.465 97.88 347.196 97.88C349.927 97.88 351.463 98.6693 351.804 100.248L352.38 103.064H352.828C354.065 100.589 356.199 98.8613 359.228 97.88C360.465 97.496 361.831 97.304 363.324 97.304C367.633 97.304 370.535 98.6053 372.028 101.208C373.564 103.768 374.332 107.949 374.332 113.752ZM387.059 133.912C386.035 133.443 384.925 132.739 383.731 131.8C382.579 130.861 381.619 129.752 380.851 128.472C379.059 125.4 378.163 121.389 378.163 116.44C378.163 113.368 378.653 110.637 379.635 108.248C380.616 105.816 381.811 103.939 383.219 102.616C384.627 101.293 386.248 100.205 388.083 99.352C391.027 97.9867 393.971 97.304 396.915 97.304C401.864 97.304 405.299 97.688 407.219 98.456C409.181 99.224 410.163 100.525 410.163 102.36C410.163 104.195 409.821 106.157 409.139 108.248C408.499 110.296 407.645 111.32 406.579 111.32C406.237 111.32 405.192 110.957 403.443 110.232C401.736 109.507 400.243 109.144 398.963 109.144C397.725 109.144 396.765 109.656 396.083 110.68C395.443 111.661 395.123 113.603 395.123 116.504C395.123 119.363 395.421 121.325 396.019 122.392C396.616 123.416 397.533 123.928 398.771 123.928C400.051 123.928 401.629 123.501 403.507 122.648C405.384 121.795 406.429 121.368 406.643 121.368C407.453 121.368 408.221 122.328 408.947 124.248C409.715 126.168 410.099 127.875 410.099 129.368C410.099 131.672 408.904 133.293 406.515 134.232C404.125 135.128 400.883 135.576 396.787 135.576C392.733 135.576 389.491 135.021 387.059 133.912ZM431.59 101.912V133.464C431.59 133.933 430.353 134.317 427.878 134.616C425.446 134.872 422.929 135 420.326 135C417.766 135 416.102 134.893 415.334 134.68C414.609 134.424 414.246 134.019 414.246 133.464V103.064C414.246 102.125 415.441 101.208 417.83 100.312C420.262 99.3733 422.907 98.904 425.766 98.904C429.649 98.904 431.59 99.9067 431.59 101.912ZM422.886 85.08C425.702 85.08 427.899 85.5067 429.478 86.36C431.099 87.1707 431.91 88.664 431.91 90.84C431.91 94.68 428.923 96.6 422.95 96.6C416.977 96.6 413.99 94.68 413.99 90.84C413.99 87 416.955 85.08 422.886 85.08ZM453.197 120.536C453.197 123.309 454.52 124.696 457.165 124.696C458.701 124.696 460.706 124.184 463.181 123.16C465.656 122.093 466.957 121.56 467.085 121.56C467.896 121.56 468.962 122.776 470.285 125.208C471.608 127.64 472.269 129.432 472.269 130.584C472.269 132.248 470.562 133.507 467.149 134.36C463.736 135.213 460.386 135.64 457.101 135.64C453.858 135.64 451.128 135.384 448.909 134.872C446.733 134.36 444.941 133.72 443.533 132.952C442.168 132.141 440.952 131.16 439.885 130.008C438.861 128.856 438.093 127.768 437.581 126.744C437.069 125.677 436.664 124.504 436.365 123.224C435.938 121.347 435.725 119.405 435.725 117.4C435.725 109.635 437.752 104.28 441.805 101.336C443.81 99.8427 446.05 98.7973 448.525 98.2C451 97.6027 453.922 97.304 457.293 97.304C468.088 97.304 473.485 101.059 473.485 108.568C473.485 116.547 467.426 120.536 455.309 120.536H453.197ZM453.069 111.192V115.416C454.306 115.416 455.309 114.925 456.077 113.944C456.888 112.963 457.293 111.768 457.293 110.36C457.293 107.8 456.632 106.52 455.309 106.52C453.816 106.52 453.069 108.077 453.069 111.192ZM515.895 113.752V133.464C515.895 133.933 514.679 134.317 512.247 134.616C509.815 134.872 507.297 135 504.695 135C502.135 135 500.471 134.893 499.703 134.68C498.977 134.424 498.615 134.019 498.615 133.464V113.112C498.615 111.192 498.529 109.933 498.359 109.336C498.231 108.739 498.103 108.205 497.975 107.736C497.676 106.925 497.143 106.52 496.375 106.52C495.18 106.52 494.583 107.096 494.583 108.248V133.464C494.583 133.933 493.367 134.317 490.935 134.616C488.545 134.872 486.049 135 483.447 135C480.887 135 479.223 134.893 478.455 134.68C477.687 134.424 477.303 134.019 477.303 133.464V101.912C477.303 101.016 478.519 100.12 480.951 99.224C483.425 98.328 486.028 97.88 488.759 97.88C491.489 97.88 493.025 98.6693 493.367 100.248L493.943 103.064H494.391C495.628 100.589 497.761 98.8613 500.791 97.88C502.028 97.496 503.393 97.304 504.887 97.304C509.196 97.304 512.097 98.6053 513.591 101.208C515.127 103.768 515.895 107.949 515.895 113.752ZM545.517 134.424C544.749 135.149 543 135.512 540.269 135.512C537.538 135.512 535.277 135.341 533.485 135C531.693 134.616 529.986 133.891 528.365 132.824C525.25 130.733 523.693 126.381 523.693 119.768V109.784H520.493C520.024 109.784 519.618 109.293 519.277 108.312C518.936 107.331 518.765 105.987 518.765 104.28C518.765 102.573 519.021 101.08 519.533 99.8C520.088 98.4773 520.792 97.816 521.645 97.816H523.693V90.072C523.693 88.7493 524.973 87.6827 527.533 86.872C530.136 86.0613 532.674 85.656 535.149 85.656C539.032 85.656 540.973 86.616 540.973 88.536V97.816H545.709C546.818 97.816 547.373 99.416 547.373 102.616C547.373 104.707 547.117 106.435 546.605 107.8C546.136 109.123 545.517 109.784 544.749 109.784H540.973V121.496C540.973 122.648 541.464 123.48 542.445 123.992C543.426 124.461 544.28 124.696 545.005 124.696C545.773 124.696 546.242 125.059 546.413 125.784C546.584 126.509 546.669 127.597 546.669 129.048C546.669 131.907 546.285 133.699 545.517 134.424Z" fill="url(#paint0_linear_130_29)"/>
<g clip-path="url(#clip0_130_29)">
<path d="M87.5764 78C88.2028 78.0719 88.2028 78.0719 88.4801 78.1643C88.4801 78.2185 88.4801 78.2728 88.4801 78.3286C88.6427 78.3557 88.8054 78.3828 88.973 78.4108C88.973 78.465 88.973 78.5192 88.973 78.5751C89.1357 78.6022 89.2984 78.6293 89.466 78.6573C89.466 78.7115 89.466 78.7657 89.466 78.8216C89.6557 78.8487 89.8455 78.8758 90.041 78.9037C90.041 78.9579 90.041 79.0122 90.041 79.068C90.2037 79.0951 90.3664 79.1223 90.534 79.1502C90.534 79.2044 90.534 79.2586 90.534 79.3145C90.6204 79.3272 90.6204 79.3272 90.7086 79.3402C90.9769 79.4044 91.1951 79.5134 91.4377 79.6431C91.4377 79.6974 91.4377 79.7516 91.4377 79.8074C91.497 79.8159 91.5563 79.8244 91.6174 79.8331C91.8713 79.8952 92.0453 79.9875 92.2593 80.1361C92.2864 80.1903 92.3135 80.2445 92.3414 80.3004C92.4505 80.3296 92.5602 80.3566 92.6701 80.3825C92.8153 80.4497 92.959 80.52 93.1014 80.5931C93.1747 80.6305 93.248 80.6678 93.3235 80.7064C93.4067 80.7494 93.4067 80.7494 93.4916 80.7933C93.4916 80.8475 93.4916 80.9018 93.4916 80.9576C93.5442 80.9763 93.5967 80.9949 93.6508 81.0141C93.9955 81.1619 94.3164 81.347 94.6418 81.5327C94.6418 81.587 94.6418 81.6412 94.6418 81.697C94.7028 81.7208 94.7638 81.7445 94.8267 81.7689C95.0171 81.8468 95.1988 81.9311 95.3812 82.0257C95.3812 82.0799 95.3812 82.1341 95.3812 82.19C95.4897 82.2171 95.5981 82.2442 95.7099 82.2721C95.7099 82.3264 95.7099 82.3806 95.7099 82.4365C95.7569 82.445 95.8039 82.4536 95.8523 82.4625C96.0689 82.5278 96.2077 82.6237 96.3876 82.7599C96.4747 82.8246 96.4747 82.8246 96.5635 82.8906C96.6071 82.9305 96.6508 82.9704 96.6957 83.0116C96.6957 83.0658 96.6957 83.12 96.6957 83.1759C96.7411 83.197 96.7864 83.2182 96.8331 83.2401C97.0526 83.3549 97.2518 83.487 97.4557 83.6277C97.529 83.6777 97.6023 83.7277 97.6778 83.7792C97.7333 83.8241 97.7887 83.869 97.8459 83.9153C97.8459 83.9695 97.8459 84.0237 97.8459 84.0796C97.8934 84.1033 97.9408 84.127 97.9897 84.1515C98.0507 84.182 98.1117 84.2125 98.1746 84.2439C98.2305 84.2693 98.2864 84.2947 98.344 84.3209C98.5135 84.4139 98.6261 84.5064 98.7496 84.6547C98.7496 84.7089 98.7496 84.7631 98.7496 84.819C98.7988 84.8427 98.8479 84.8664 98.8986 84.8909C99.0783 84.9833 99.0783 84.9833 99.3247 85.1476C99.3247 85.2018 99.3247 85.2561 99.3247 85.3119C99.4061 85.3391 99.4874 85.3662 99.5712 85.3941C99.5712 85.4483 99.5712 85.5025 99.5712 85.5584C99.6525 85.5855 99.7339 85.6126 99.8177 85.6406C99.8177 85.6948 99.8177 85.749 99.8177 85.8049C99.899 85.832 99.9804 85.8591 100.064 85.887C100.064 85.9413 100.064 85.9955 100.064 86.0513C100.145 86.0785 100.227 86.1056 100.311 86.1335C100.311 86.1877 100.311 86.242 100.311 86.2978C100.365 86.2978 100.419 86.2978 100.475 86.2978C100.587 86.4328 100.696 86.5702 100.804 86.7086C100.905 86.8103 100.905 86.8103 101.009 86.914C101.543 87.448 101.543 87.448 101.543 87.6945C101.597 87.6945 101.651 87.6945 101.707 87.6945C101.831 87.8325 101.831 87.8325 101.964 88.0128C102.008 88.0719 102.053 88.131 102.098 88.1919C102.2 88.3517 102.2 88.3517 102.2 88.516C102.254 88.516 102.309 88.516 102.365 88.516C102.693 88.951 102.693 88.951 102.693 89.2555C102.747 89.2555 102.802 89.2555 102.857 89.2555C102.885 89.391 102.912 89.5266 102.94 89.6662C102.994 89.6662 103.048 89.6662 103.104 89.6662C103.131 89.7747 103.158 89.8831 103.186 89.9949C103.24 89.9949 103.295 89.9949 103.35 89.9949C103.378 90.1575 103.405 90.3202 103.433 90.4878C103.487 90.4878 103.541 90.4878 103.597 90.4878C103.652 90.6074 103.707 90.7273 103.761 90.8472C103.792 90.914 103.822 90.9807 103.854 91.0494C103.926 91.2272 103.926 91.2272 103.926 91.3915C103.98 91.3915 104.034 91.3915 104.09 91.3915C104.117 91.5813 104.144 91.7711 104.172 91.9666C104.226 91.9666 104.28 91.9666 104.336 91.9666C104.363 92.1564 104.391 92.3462 104.418 92.5417C104.473 92.5417 104.527 92.5417 104.583 92.5417C104.61 92.7586 104.637 92.9755 104.665 93.199C104.719 93.199 104.773 93.199 104.829 93.199C104.851 93.2704 104.873 93.3417 104.895 93.4153C104.939 93.5573 104.939 93.5573 104.983 93.7022C105.012 93.7956 105.04 93.889 105.07 93.9852C105.127 94.169 105.187 94.3521 105.25 94.534C105.322 94.7605 105.336 94.9349 105.322 95.1707C105.376 95.1707 105.431 95.1707 105.486 95.1707C105.514 95.5232 105.541 95.8756 105.569 96.2388C105.623 96.2388 105.677 96.2388 105.733 96.2388C105.76 96.6726 105.787 97.1063 105.815 97.5533C105.869 97.5533 105.924 97.5533 105.979 97.5533C106.063 98.5156 106.074 99.4735 106.072 100.439C106.072 100.691 106.072 100.943 106.073 101.195C106.073 101.984 106.072 102.766 105.979 103.551C105.925 103.551 105.871 103.551 105.815 103.551C105.788 103.93 105.761 104.31 105.733 104.701C105.679 104.701 105.625 104.701 105.569 104.701C105.542 104.972 105.514 105.243 105.486 105.522C105.432 105.522 105.378 105.522 105.322 105.522C105.315 105.632 105.315 105.632 105.307 105.743C105.239 106.241 105.018 106.704 104.829 107.166C104.775 107.166 104.721 107.166 104.665 107.166C104.638 107.328 104.611 107.491 104.583 107.659C104.529 107.659 104.474 107.659 104.418 107.659C104.391 107.821 104.364 107.984 104.336 108.151C104.282 108.151 104.228 108.151 104.172 108.151C104.145 108.287 104.118 108.423 104.09 108.562C104.036 108.562 103.981 108.562 103.926 108.562C103.898 108.698 103.871 108.833 103.843 108.973C103.789 108.973 103.735 108.973 103.679 108.973C103.652 109.081 103.625 109.19 103.597 109.302C103.543 109.302 103.488 109.302 103.433 109.302C103.409 109.349 103.385 109.397 103.361 109.445C103.275 109.617 103.19 109.788 103.104 109.959C103.05 109.959 102.996 109.959 102.94 109.959C102.918 110.006 102.897 110.054 102.875 110.102C102.767 110.302 102.644 110.452 102.493 110.621C102.444 110.676 102.395 110.732 102.344 110.789C102.297 110.84 102.249 110.892 102.2 110.945C102.157 110.992 102.114 111.039 102.069 111.088C101.954 111.191 101.954 111.191 101.789 111.191C101.769 111.238 101.749 111.285 101.728 111.334C101.609 111.549 101.47 111.696 101.297 111.869C101.239 111.927 101.181 111.985 101.122 112.045C100.968 112.177 100.968 112.177 100.804 112.177C100.776 112.258 100.749 112.34 100.721 112.424C100.667 112.424 100.613 112.424 100.557 112.424C100.557 112.478 100.557 112.532 100.557 112.588C100.425 112.724 100.425 112.724 100.249 112.875C100.192 112.925 100.135 112.975 100.076 113.027C99.8998 113.163 99.8998 113.163 99.7188 113.248C99.5419 113.321 99.5419 113.321 99.4891 113.574C99.343 113.706 99.343 113.706 99.1656 113.836C99.1072 113.879 99.0489 113.923 98.9887 113.968C98.8318 114.067 98.8318 114.067 98.6675 114.067C98.6404 114.148 98.6133 114.229 98.5853 114.313C98.3024 114.56 98.3024 114.56 98.0924 114.56C98.0924 114.614 98.0924 114.668 98.0924 114.724C97.9084 114.866 97.7243 114.999 97.5327 115.13C97.4276 115.202 97.3227 115.275 97.2179 115.348C97.1475 115.396 97.1475 115.396 97.0758 115.445C96.9357 115.55 96.8181 115.667 96.6957 115.792C96.3945 116.039 96.3945 116.039 96.2028 116.039C96.2028 116.093 96.2028 116.147 96.2028 116.203C95.9184 116.449 95.9184 116.449 95.7099 116.449C95.7099 116.504 95.7099 116.558 95.7099 116.614C95.5625 116.726 95.5625 116.726 95.3658 116.85C95.0377 117.062 94.7208 117.274 94.4438 117.551C94.307 117.688 94.1659 117.816 94.0205 117.944C93.9713 117.987 93.922 118.031 93.8713 118.075C93.7381 118.175 93.7381 118.175 93.5738 118.175C93.5738 118.229 93.5738 118.283 93.5738 118.339C93.4502 118.458 93.4502 118.458 93.2811 118.596C92.9726 118.856 92.715 119.135 92.4602 119.448C92.421 119.488 92.3818 119.529 92.3414 119.571C92.2872 119.571 92.233 119.571 92.1771 119.571C92.1534 119.619 92.1297 119.666 92.1052 119.715C92.0197 119.886 91.9341 120.057 91.8485 120.228C91.7943 120.228 91.74 120.228 91.6842 120.228C91.6571 120.337 91.63 120.445 91.602 120.557C91.5478 120.557 91.4936 120.557 91.4377 120.557C91.4106 120.693 91.3835 120.828 91.3556 120.968C91.3013 120.968 91.2471 120.968 91.1912 120.968C91.1785 121.031 91.1785 121.031 91.1656 121.096C91.0892 121.367 90.9765 121.614 90.8626 121.872C90.8084 121.872 90.7542 121.872 90.6983 121.872C90.6856 121.996 90.6856 121.996 90.6726 122.123C90.6146 122.456 90.5061 122.715 90.3697 123.022C90.2887 123.349 90.2667 123.672 90.2464 124.008C90.2141 124.543 90.2141 124.543 90.1566 124.804C90.1196 125.014 90.1497 125.118 90.2054 125.322C90.2179 125.524 90.2278 125.726 90.2362 125.928C90.2737 126.656 90.3887 127.358 90.6235 128.051C90.6983 128.28 90.7123 128.452 90.6983 128.691C90.7525 128.691 90.8067 128.691 90.8626 128.691C90.8897 128.935 90.9168 129.179 90.9448 129.43C90.999 129.43 91.0532 129.43 91.1091 129.43C91.1362 129.647 91.1633 129.864 91.1912 130.087C91.2455 130.087 91.2997 130.087 91.3556 130.087C91.3827 130.304 91.4098 130.521 91.4377 130.745C91.4919 130.745 91.5462 130.745 91.602 130.745C91.6291 130.907 91.6562 131.07 91.6842 131.237C91.7384 131.237 91.7926 131.237 91.8485 131.237C91.8756 131.427 91.9027 131.617 91.9307 131.813C91.9849 131.813 92.0391 131.813 92.095 131.813C92.1221 131.975 92.1492 132.138 92.1771 132.306C92.2313 132.306 92.2856 132.306 92.3414 132.306C92.3685 132.522 92.3957 132.739 92.4236 132.963C92.3151 132.963 92.2067 132.963 92.095 132.963C92.095 132.909 92.095 132.854 92.095 132.798C91.9323 132.771 91.7696 132.744 91.602 132.716C91.602 132.662 91.602 132.608 91.602 132.552C91.4122 132.525 91.2225 132.498 91.0269 132.47C91.0269 132.416 91.0269 132.361 91.0269 132.306C90.8643 132.278 90.7016 132.251 90.534 132.223C90.534 132.169 90.534 132.115 90.534 132.059C90.3713 132.032 90.2086 132.005 90.041 131.977C90.041 131.923 90.041 131.868 90.041 131.813C89.8784 131.785 89.7157 131.758 89.5481 131.73C89.5481 131.676 89.5481 131.622 89.5481 131.566C89.3854 131.539 89.2228 131.512 89.0552 131.484C89.0552 131.43 89.0552 131.376 89.0552 131.32C88.9959 131.311 88.9366 131.303 88.8755 131.294C88.6216 131.232 88.4476 131.14 88.2336 130.991C88.2065 130.937 88.1794 130.883 88.1514 130.827C88.0424 130.797 87.9327 130.771 87.8228 130.745C87.6776 130.677 87.5338 130.607 87.3915 130.534C87.3182 130.497 87.2449 130.459 87.1694 130.421C87.1139 130.392 87.0584 130.363 87.0013 130.334C87.0013 130.28 87.0013 130.225 87.0013 130.169C86.8657 130.142 86.7301 130.115 86.5905 130.087C86.5905 130.033 86.5905 129.979 86.5905 129.923C86.4549 129.896 86.3194 129.869 86.1797 129.841C86.1797 129.787 86.1797 129.732 86.1797 129.677C86.0441 129.649 85.9086 129.622 85.7689 129.594C85.7689 129.54 85.7689 129.486 85.7689 129.43C85.7079 129.406 85.6469 129.383 85.5841 129.358C85.3937 129.28 85.212 129.196 85.0295 129.101C85.0295 129.047 85.0295 128.993 85.0295 128.937C84.9685 128.913 84.9075 128.89 84.8446 128.865C84.6543 128.787 84.4725 128.703 84.2901 128.608C84.2901 128.554 84.2901 128.5 84.2901 128.444C84.2481 128.426 84.2062 128.407 84.163 128.388C83.8811 128.237 83.626 128.054 83.3658 127.869C83.2858 127.813 83.2858 127.813 83.2041 127.757C83.07 127.662 82.9402 127.56 82.8113 127.458C82.8113 127.404 82.8113 127.35 82.8113 127.294C82.7638 127.27 82.7164 127.247 82.6675 127.222C82.6065 127.192 82.5455 127.161 82.4826 127.13C82.4301 127.108 82.3776 127.086 82.3235 127.063C82.0918 126.93 81.929 126.745 81.7432 126.555C81.689 126.527 81.6348 126.5 81.5789 126.472C81.5789 126.418 81.5789 126.364 81.5789 126.308C81.5336 126.288 81.4883 126.267 81.4416 126.246C81.2132 126.124 81.0218 125.976 80.819 125.815C80.7457 125.758 80.6724 125.7 80.5969 125.641C80.5137 125.564 80.5137 125.564 80.4287 125.487C80.4287 125.432 80.4287 125.378 80.4287 125.322C80.3474 125.295 80.2661 125.268 80.1823 125.24C80.1823 125.186 80.1823 125.132 80.1823 125.076C80.128 125.076 80.0738 125.076 80.0179 125.076C79.9079 124.939 79.7985 124.802 79.6893 124.665C79.6266 124.618 79.5639 124.57 79.4993 124.521C79.183 124.256 78.9329 123.939 78.7034 123.597C78.7034 123.543 78.7034 123.488 78.7034 123.433C78.6221 123.405 78.5408 123.378 78.457 123.35C78.3482 123.23 78.3482 123.23 78.2362 123.073C78.1731 122.985 78.1731 122.985 78.1088 122.896C78.061 122.829 78.0132 122.762 77.964 122.693C77.9053 122.614 77.8465 122.536 77.7859 122.454C77.7261 122.374 77.6662 122.293 77.6046 122.211C77.548 122.134 77.4915 122.058 77.4332 121.98C77.3068 121.789 77.3068 121.789 77.3068 121.625C77.2526 121.625 77.1983 121.625 77.1425 121.625C77.1154 121.49 77.0882 121.354 77.0603 121.214C77.0061 121.214 76.9519 121.214 76.896 121.214C76.8689 121.079 76.8418 120.943 76.8138 120.804C76.7596 120.804 76.7054 120.804 76.6495 120.804C76.6224 120.668 76.5953 120.532 76.5674 120.393C76.5131 120.393 76.4589 120.393 76.4031 120.393C76.3759 120.23 76.3488 120.067 76.3209 119.9C76.2667 119.9 76.2125 119.9 76.1566 119.9C76.1295 119.737 76.1024 119.575 76.0744 119.407C76.0202 119.407 75.966 119.407 75.9101 119.407C75.8548 119.275 75.8002 119.144 75.7458 119.012C75.7001 118.901 75.7001 118.901 75.6534 118.789C75.5815 118.585 75.5815 118.585 75.5815 118.339C75.5273 118.339 75.473 118.339 75.4172 118.339C75.3973 118.271 75.3774 118.204 75.3568 118.134C75.225 117.695 75.092 117.265 74.9088 116.845C74.7411 116.444 74.6961 116.059 74.6778 115.628C74.6235 115.628 74.5693 115.628 74.5135 115.628C74.4327 115.295 74.4246 114.984 74.4313 114.642C74.3771 114.642 74.3228 114.642 74.267 114.642C74.1986 114.172 74.1749 113.72 74.1848 113.245C74.1306 113.245 74.0764 113.245 74.0205 113.245C73.9298 112.301 73.9257 111.36 73.9276 110.413C73.9281 110.154 73.9276 109.895 73.9271 109.637C73.9266 108.037 73.9266 108.037 74.0205 107.248C74.0747 107.248 74.129 107.248 74.1848 107.248C74.1909 107.141 74.1909 107.141 74.197 107.031C74.2032 106.937 74.2093 106.842 74.2156 106.745C74.2214 106.651 74.2271 106.558 74.233 106.461C74.2671 106.179 74.3332 105.953 74.4313 105.687C74.468 105.579 74.5044 105.47 74.5407 105.362C74.7423 104.773 74.9466 104.202 75.2391 103.651C75.3965 103.351 75.5292 103.04 75.6636 102.729C75.7179 102.729 75.7721 102.729 75.828 102.729C75.8551 102.594 75.8822 102.458 75.9101 102.318C75.9643 102.318 76.0186 102.318 76.0744 102.318C76.1015 102.183 76.1287 102.047 76.1566 101.908C76.2108 101.908 76.265 101.908 76.3209 101.908C76.348 101.799 76.3751 101.691 76.4031 101.579C76.4573 101.579 76.5115 101.579 76.5674 101.579C76.5911 101.516 76.6148 101.454 76.6393 101.389C76.7317 101.168 76.7317 101.168 76.896 100.922C76.9502 100.922 77.0044 100.922 77.0603 100.922C77.0806 100.876 77.101 100.83 77.1219 100.783C77.2938 100.465 77.5256 100.173 77.7997 99.9358C77.8539 99.9358 77.9082 99.9358 77.964 99.9358C77.9867 99.8872 78.0094 99.8386 78.0327 99.7885C78.312 99.2589 78.802 98.8101 79.2785 98.457C79.3328 98.457 79.387 98.457 79.4428 98.457C79.47 98.3757 79.4971 98.2943 79.525 98.2105C79.5792 98.2105 79.6335 98.2105 79.6893 98.2105C79.6893 98.1563 79.6893 98.1021 79.6893 98.0462C79.8215 97.9101 79.8215 97.9101 79.9974 97.7587C80.0546 97.7087 80.1118 97.6587 80.1707 97.6072C80.3338 97.481 80.4878 97.3912 80.6752 97.3068C80.6752 97.2526 80.6752 97.1984 80.6752 97.1425C80.8385 97.0059 81.0022 96.8783 81.1733 96.7522C81.2718 96.6782 81.3702 96.6041 81.4685 96.5298C81.5161 96.494 81.5636 96.4581 81.6126 96.4212C81.8569 96.2337 82.0864 96.0303 82.3183 95.828C82.6223 95.5815 82.6223 95.5815 82.8113 95.5815C82.8113 95.5273 82.8113 95.4731 82.8113 95.4172C82.9293 95.308 82.9293 95.308 83.093 95.1855C83.1516 95.1415 83.2102 95.0976 83.2705 95.0523C83.3325 95.0067 83.3944 94.961 83.4583 94.914C83.5502 94.8446 83.5502 94.8446 83.6441 94.7737C84.1042 94.4313 84.1042 94.4313 84.2901 94.4313C84.2901 94.3771 84.2901 94.3229 84.2901 94.267C84.7347 93.9384 84.7347 93.9384 84.9473 93.9384C84.9745 93.857 85.0016 93.7757 85.0295 93.6919C85.3125 93.4454 85.3125 93.4454 85.5224 93.4454C85.5224 93.3912 85.5224 93.337 85.5224 93.2811C85.6561 93.1677 85.794 93.0591 85.9332 92.9525C86.0832 92.8211 86.2324 92.6889 86.3809 92.5558C86.5083 92.4596 86.5083 92.4596 86.6726 92.4596C86.6726 92.4053 86.6726 92.3511 86.6726 92.2953C86.8092 92.1852 86.9462 92.0758 87.0834 91.9666C87.1427 91.8921 87.202 91.8175 87.2631 91.7407C87.3123 91.6797 87.3614 91.6187 87.412 91.5558C87.4663 91.5558 87.5205 91.5558 87.5764 91.5558C87.5967 91.5101 87.617 91.4643 87.638 91.4172C87.7584 91.1944 87.9095 91.0124 88.0693 90.8164C88.0964 90.7622 88.1235 90.708 88.1514 90.6521C88.2057 90.6521 88.2599 90.6521 88.3158 90.6521C88.3429 90.5437 88.37 90.4352 88.3979 90.3235C88.4521 90.3235 88.5064 90.3235 88.5622 90.3235C88.5893 90.1879 88.6165 90.0524 88.6444 89.9127C88.6986 89.9127 88.7528 89.9127 88.8087 89.9127C88.8165 89.8703 88.8244 89.828 88.8324 89.7843C88.8962 89.5659 88.9895 89.3708 89.0901 89.1672C89.5152 88.3054 89.7271 87.5014 89.7772 86.5369C89.7946 86.2978 89.7946 86.2978 89.8427 86.0818C89.88 85.8685 89.8509 85.7648 89.7946 85.5584C89.7841 85.3634 89.7758 85.1682 89.7689 84.973C89.7183 83.9691 89.5042 82.9755 89.1155 82.0472C89.048 81.8392 89.0444 81.6678 89.0552 81.4506C89.0009 81.4506 88.9467 81.4506 88.8909 81.4506C88.8637 81.2066 88.8366 80.9626 88.8087 80.7112C88.7545 80.7112 88.7003 80.7112 88.6444 80.7112C88.6173 80.4943 88.5902 80.2774 88.5622 80.0539C88.508 80.0539 88.4538 80.0539 88.3979 80.0539C88.3708 79.8912 88.3437 79.7286 88.3158 79.561C88.2615 79.561 88.2073 79.561 88.1514 79.561C88.1243 79.3712 88.0972 79.1814 88.0693 78.9859C88.0151 78.9859 87.9608 78.9859 87.905 78.9859C87.8779 78.8232 87.8508 78.6605 87.8228 78.4929C87.7686 78.4929 87.7144 78.4929 87.6585 78.4929C87.6314 78.3303 87.6043 78.1676 87.5764 78Z" fill="url(#paint1_linear_130_29)"/>
<path d="M66.61 137.307C66.692 137.307 66.7741 137.306 66.8586 137.306C67.1353 137.306 67.4119 137.306 67.6886 137.307C67.8882 137.306 68.0879 137.306 68.2876 137.306C68.7225 137.306 69.1575 137.306 69.5925 137.306C70.2393 137.306 70.8862 137.306 71.533 137.306C72.6881 137.306 73.8433 137.306 74.9984 137.306C76.0093 137.306 77.0201 137.306 78.031 137.306C78.098 137.306 78.165 137.306 78.234 137.306C78.506 137.306 78.7779 137.306 79.0499 137.306C81.6021 137.306 84.1543 137.306 86.7065 137.306C88.9751 137.307 91.2436 137.307 93.5121 137.306C96.0596 137.306 98.6071 137.306 101.155 137.306C101.426 137.306 101.698 137.306 101.969 137.306C102.036 137.306 102.103 137.306 102.172 137.306C103.182 137.306 104.192 137.306 105.203 137.306C106.351 137.306 107.5 137.306 108.648 137.306C109.291 137.306 109.935 137.306 110.578 137.306C111.057 137.306 111.537 137.306 112.016 137.306C112.211 137.307 112.405 137.306 112.6 137.306C112.863 137.306 113.127 137.306 113.39 137.307C113.466 137.306 113.543 137.306 113.622 137.306C113.96 137.307 114.276 137.313 114.606 137.399C114.606 137.453 114.606 137.508 114.606 137.563C114.714 137.618 114.823 137.672 114.935 137.728C114.935 137.782 114.935 137.836 114.935 137.892C114.989 137.892 115.043 137.892 115.099 137.892C115.21 138.115 115.186 138.304 115.181 138.549C115.235 138.549 115.289 138.549 115.345 138.549C115.345 139.308 115.345 140.068 115.345 140.85C115.291 140.85 115.237 140.85 115.181 140.85C115.191 140.956 115.191 140.956 115.202 141.065C115.176 141.412 115.071 141.569 114.852 141.836C114.618 141.98 114.442 142.02 114.169 142.021C114.098 142.021 114.027 142.021 113.954 142.022C113.837 142.021 113.837 142.021 113.718 142.021C113.594 142.021 113.594 142.021 113.466 142.021C113.186 142.022 112.905 142.021 112.624 142.021C112.422 142.021 112.22 142.021 112.017 142.022C111.576 142.022 111.135 142.022 110.694 142.022C110.038 142.021 109.382 142.021 108.726 142.022C107.555 142.023 106.383 142.023 105.212 142.022C104.187 142.022 103.162 142.022 102.136 142.022C102.069 142.022 102.001 142.022 101.931 142.022C101.655 142.022 101.379 142.022 101.103 142.022C98.5156 142.023 95.9277 142.022 93.3399 142.021C91.0394 142.02 88.7388 142.021 86.4383 142.021C83.8553 142.022 81.2722 142.023 78.6892 142.022C78.414 142.022 78.1387 142.022 77.8635 142.022C77.7957 142.022 77.728 142.022 77.6581 142.022C76.6335 142.022 75.6089 142.022 74.5843 142.022C73.4196 142.023 72.2549 142.023 71.0902 142.022C70.4379 142.021 69.7856 142.021 69.1333 142.022C68.6471 142.022 68.161 142.022 67.6748 142.021C67.4774 142.021 67.2801 142.021 67.0827 142.021C66.8157 142.022 66.5487 142.021 66.2817 142.021C66.204 142.021 66.1263 142.021 66.0462 142.022C65.9752 142.021 65.9043 142.021 65.8312 142.021C65.7701 142.021 65.709 142.02 65.6461 142.02C65.3182 141.981 65.1705 141.864 64.9628 141.61C64.8091 141.324 64.7887 141.168 64.819 140.85C64.7648 140.85 64.7105 140.85 64.6547 140.85C64.6547 140.091 64.6547 139.331 64.6547 138.549C64.7089 138.549 64.7631 138.549 64.819 138.549C64.8173 138.471 64.8156 138.393 64.8138 138.313C64.819 138.056 64.819 138.056 64.9011 137.892C64.9554 137.892 65.0096 137.892 65.0654 137.892C65.1197 137.784 65.1739 137.675 65.2298 137.563C65.284 137.563 65.3382 137.563 65.3941 137.563C65.3941 137.509 65.3941 137.455 65.3941 137.399C65.7977 137.294 66.1961 137.306 66.61 137.307Z" fill="#FFFAFA"/>
<path d="M80.6752 125.815C80.8395 125.898 80.8395 125.898 80.8395 125.898L80.6752 125.815Z" fill="black"/>
</g>
<defs>
<linearGradient id="paint0_linear_130_29" x1="0" y1="81" x2="549" y2="81" gradientUnits="userSpaceOnUse">
<stop stop-color="#007157"/>
<stop offset="1" stop-color="#00E6FF"/>
</linearGradient>
<linearGradient id="paint1_linear_130_29" x1="89.9999" y1="78" x2="89.9999" y2="132.963" gradientUnits="userSpaceOnUse">
<stop stop-color="#002624"/>
<stop offset="0.697115" stop-color="#057F79"/>
</linearGradient>
<clipPath id="clip0_130_29">
<rect width="64" height="82" fill="white" transform="translate(58 60)"/>
</clipPath>
</defs>
</svg>
