<svg width="400" height="384" viewBox="0 0 400 384" fill="none" xmlns="http://www.w3.org/2000/svg">
<path fill-rule="evenodd" clip-rule="evenodd" d="M178.887 20.7511C160.534 22.7861 145.455 26.7871 127.224 34.4591C116.406 39.0131 98.4518 49.7061 90.3718 56.4091C89.7218 56.9481 88.4388 57.9941 87.5198 58.7331C78.2848 66.1641 69.0088 75.5611 60.6178 85.9881C57.2548 90.1671 52.5908 96.4991 52.5908 96.8861C52.5908 97.0081 51.6408 98.5111 50.4798 100.226C49.3188 101.941 48.3688 103.403 48.3688 103.475C48.3688 103.547 47.7288 104.695 46.9468 106.025C43.7028 111.55 42.4348 114.01 38.2838 122.841C33.0908 133.888 26.8698 154.743 25.2018 166.692C24.8838 168.97 25.5848 168.733 26.3108 166.315C27.8778 161.101 32.4648 150.635 34.8248 146.891C42.5898 134.568 49.9918 126.321 59.8848 118.972C63.8288 116.042 66.4088 113.709 66.4128 113.07C66.4178 112.33 76.2728 98.2721 77.7268 96.9291C77.9558 96.7181 79.3668 95.0771 80.8618 93.2821C91.2818 80.7781 107.98 67.3311 123.8 58.7051C130.078 55.2821 132.484 54.1471 139.731 51.1911C150.092 46.9661 162.56 43.4771 172.361 42.0601C174.789 41.7091 177.726 41.2671 178.887 41.0781C180.048 40.8891 182.726 40.6321 184.837 40.5071C190.831 40.1531 193.106 39.8751 192.889 39.5241C192.573 39.0131 183.88 34.9331 183.106 34.9331C182.87 34.9331 181.695 34.4871 180.494 33.9431C175.271 31.5741 173.321 30.4861 173.321 29.9421C173.321 29.3971 181.527 25.0141 182.629 24.9711C183.891 24.9211 192.029 21.0341 192.248 20.3761C192.455 19.7561 186.297 19.9291 178.887 20.7511ZM270.584 101.905C270.486 102.003 268.946 102.254 267.161 102.463C261.109 103.172 253.496 104.941 248.752 106.742C247.591 107.183 246.209 107.683 245.681 107.854C236.31 110.894 222.932 119.782 213.628 129.15C207.396 135.423 199.152 146.495 198.086 150.02C197.914 150.589 196.969 152.851 195.987 155.045C194.129 159.194 193.709 160.275 192.099 165.067C189.155 173.828 188.361 178.494 187.332 193.09C185.836 214.313 180.477 228.269 168.814 241.313C132.376 282.063 66.1338 269.378 47.5818 218.097C45.9318 213.537 45.3698 214.691 46.6168 220.075C46.9208 221.385 47.4488 224.012 47.7908 225.912C48.1328 227.812 48.6408 230.144 48.9208 231.094C49.2008 232.044 49.6438 233.599 49.9048 234.549C54.7838 252.301 63.6428 270.644 68.6198 273.3C87.5758 283.416 106.16 287.524 124.184 285.582C150.537 282.743 173.424 269.817 189.06 248.941C191.89 245.162 196.545 237.664 196.545 236.883C196.545 236.631 197.495 234.371 198.656 231.863C203.879 220.577 205.879 211.591 207.288 193.09C207.714 187.495 208.232 182.226 208.438 181.382C208.645 180.537 209.169 178.296 209.603 176.401C211.442 168.366 216.109 158.418 221.225 151.631C224.199 147.686 229.161 142.097 230.994 140.628C231.999 139.823 233.772 138.37 234.933 137.399C246.665 127.594 262.135 122.375 279.655 122.312C288.613 122.28 289.74 122.412 297.679 124.422C318.84 129.78 336.978 145.689 345.647 166.496C353.715 185.863 352.877 213.804 343.37 242.418C340.633 250.653 340.056 252.145 337.391 257.861C336.778 259.177 336.276 260.336 336.276 260.438C336.276 260.923 331.294 269.727 329.031 273.24C312.123 299.493 293.556 316.777 267.47 330.548C264.358 332.191 261.421 333.657 260.944 333.807C260.467 333.956 259.007 334.566 257.7 335.163C253.687 336.994 243.212 340.765 240.691 341.287C239.952 341.44 237.879 342.001 236.084 342.535C228.67 344.739 219.614 346.246 208.253 347.166L202.879 347.601V357.582V367.562L206.91 367.446C209.127 367.382 213.1 367.08 215.739 366.774C218.378 366.468 221.401 366.121 222.457 366.002C226.937 365.498 245.675 361.368 246.89 360.618C247.043 360.523 248.903 359.93 251.024 359.3C255.905 357.85 264.552 354.458 270.193 351.781C272.589 350.643 274.617 349.712 274.699 349.712C275.295 349.712 290.624 340.843 291.939 339.739C292.361 339.384 293.357 338.722 294.153 338.269C307.514 330.661 333.096 305.061 341.793 290.595C342.364 289.645 343.148 288.436 343.534 287.908C346.456 283.914 352.167 273.446 355.471 266.027C356.553 263.599 357.795 260.835 358.232 259.885C358.669 258.935 359.164 257.726 359.331 257.198C359.498 256.67 360.001 255.288 360.447 254.127C369.622 230.273 373.537 198.033 369.607 178.695C369.178 176.583 368.678 174.126 368.496 173.233C364.417 153.259 351.072 132.951 333.397 119.822C331.919 118.725 330.061 117.302 329.267 116.662C324.612 112.906 310.687 106.739 301.937 104.558C297.05 103.34 296.038 103.173 287.175 102.113C283.965 101.73 270.923 101.566 270.584 101.905Z" fill="#FAF9F4"/>
<path fill-rule="evenodd" clip-rule="evenodd" d="M198.656 19.9571L197.121 20.1541V29.9421V39.7311L204.223 40.1931C255.569 43.5321 298.395 68.125 326.109 110.186C329.101 114.727 330.439 116.413 331.718 117.254C343.543 125.034 356.971 140.577 362.413 152.783C362.836 153.733 363.351 154.816 363.556 155.189C364.193 156.345 367.272 164.403 367.727 166.107C367.965 166.995 368.327 167.826 368.533 167.953C368.738 168.08 368.909 168.648 368.912 169.217C368.915 169.785 369.085 170.509 369.29 170.825C370.072 172.036 368.979 164.073 367.419 157.198C367.228 156.353 366.788 154.367 366.442 152.783C365.07 146.499 360.288 131.87 357.971 126.871C357.677 126.238 356.272 123.158 354.849 120.026C337.873 82.6761 305.074 50.8241 266.259 33.9921C258.259 30.5231 243.563 25.5391 238.964 24.7351C238.119 24.5881 236.132 24.1391 234.549 23.7381C232.965 23.3381 230.029 22.7511 228.023 22.4361C226.017 22.1201 222.756 21.6081 220.776 21.2971C214.831 20.3661 201.689 19.5701 198.656 19.9571ZM178.529 27.9561C174.427 29.7901 174.407 29.9271 178.011 31.5731C182.702 33.7161 182.534 33.7761 182.534 29.9741C182.534 26.0991 182.603 26.1341 178.529 27.9561ZM105.374 102.159C96.3069 103.286 88.1999 105.29 80.9089 108.205C76.2739 110.058 67.2219 114.78 65.4509 116.268C65.0289 116.623 63.8199 117.502 62.7639 118.221C46.2899 129.447 32.7609 148.309 27.0979 167.946C26.7329 169.213 26.2759 170.772 26.0839 171.41C20.4279 190.137 23.0379 222.54 32.4229 250.103C38.5829 268.195 53.0949 294.607 61.4219 302.879C61.5279 302.985 62.9019 304.626 64.4749 306.526C89.9289 337.267 134.834 362.204 171.593 366.01C172.965 366.152 175.038 366.425 176.2 366.616C180.902 367.388 190.007 367.858 190.608 367.359C191.097 366.954 191.168 365.426 191.081 357.241L190.979 347.601L187.716 347.299C143.572 343.213 108.896 326.099 81.3779 294.818C66.7469 278.186 52.5979 252.136 48.7459 234.741C48.5589 233.896 48.1299 232.255 47.7909 231.094C43.6689 216.936 42.2949 193.961 44.7589 180.422C47.4159 165.827 55.7699 150.689 66.3009 141.385C67.6889 140.159 69.0489 138.937 69.3239 138.669C83.0469 125.315 113.133 118.442 132.821 124.164C133.772 124.44 135.326 124.892 136.276 125.168C155.763 130.828 174.383 147.898 181.596 166.715C182.018 167.814 182.524 169.06 182.72 169.482C183.371 170.879 185.357 177.897 185.599 179.655C186.261 184.452 186.739 184.523 187.324 179.912C187.99 174.658 190.429 165.489 192.521 160.378C194.071 156.592 194.079 156.572 195.345 153.847C196.765 150.79 196.761 150.843 195.766 149.025C185.373 130.034 164.957 112.851 145.489 106.71C131.43 102.275 117.317 100.674 105.374 102.159ZM207.727 203.839C207.276 208.573 204.41 220.552 202.539 225.528C201.429 228.479 201.443 228.447 199.463 232.765C197.492 237.064 197.534 237.288 201.462 243.378C227.898 284.372 280.227 297.759 323.53 274.605C329.431 271.45 329.64 271.188 334.972 260.269C342.19 245.489 347.64 226.994 348.772 213.436C348.906 211.83 348.894 211.803 348.601 213.052C348.427 213.791 348.002 214.914 347.657 215.547C347.312 216.18 347.029 216.896 347.027 217.138C347.026 217.38 346.498 218.848 345.854 220.401C325.649 269.11 263.499 281.073 227.351 243.212C223.993 239.695 218.042 232.08 218.042 231.3C218.042 231.146 217.703 230.544 217.288 229.961C213.985 225.323 209.334 212.512 207.943 204.223C207.855 203.695 207.757 203.522 207.727 203.839Z" fill="#003F58"/>
<path fill-rule="evenodd" clip-rule="evenodd" d="M196.415 19.6058C195.4 21.0548 195.46 39.2218 196.483 40.2448C197.089 40.8508 198.09 40.9838 203.589 41.1908C246.134 42.7898 287.357 63.1998 314.638 96.1728C318.324 100.628 325.267 110.118 326.286 112.092C327.206 113.875 329.405 116.305 331.214 117.535C347.28 128.465 360.3 145.785 366.553 164.548C368.145 169.326 370.058 176.504 370.058 177.704C370.058 178.091 370.337 178.64 370.677 178.923C372.549 180.477 369.158 157.481 366.042 147.49C365.534 145.862 364.857 143.58 364.538 142.418C362.631 135.476 357.275 122.145 353.467 114.861C342.257 93.4218 329.214 76.7528 311.591 61.3478C306.348 56.7648 295.995 49.0728 291.589 46.4878C290.725 45.9808 289.933 45.4558 289.827 45.3188C289.59 45.0128 286.069 42.9308 281.382 40.3258C277.872 38.3748 268.997 34.0498 266.027 32.8418C264.655 32.2838 263.186 31.6828 262.764 31.5068C262.342 31.3298 261.219 30.8868 260.269 30.5218C259.319 30.1568 258.109 29.6888 257.582 29.4808C253.977 28.0618 243.209 24.7368 239.539 23.9098C238.167 23.5998 236.44 23.2058 235.701 23.0328C226.068 20.7778 215.1 19.3718 203.842 18.9498L197.053 18.6948L196.415 19.6058ZM211.947 20.3618C214.822 20.5658 218.795 20.9868 220.776 21.2968C222.756 21.6078 226.017 22.1198 228.023 22.4358C230.029 22.7508 232.965 23.3378 234.549 23.7378C236.132 24.1388 238.119 24.5878 238.964 24.7348C243.563 25.5388 258.259 30.5228 266.259 33.9918C305.074 50.8238 337.873 82.6758 354.849 120.026C356.272 123.158 357.677 126.238 357.971 126.871C360.288 131.87 365.07 146.499 366.442 152.783C366.788 154.367 367.228 156.353 367.419 157.198C368.979 164.073 370.072 172.036 369.29 170.825C369.085 170.509 368.915 169.785 368.912 169.217C368.909 168.648 368.738 168.08 368.533 167.953C368.327 167.826 367.965 166.995 367.727 166.107C367.272 164.403 364.193 156.345 363.556 155.189C363.351 154.816 362.836 153.733 362.413 152.783C356.971 140.577 343.543 125.034 331.718 117.254C330.439 116.413 329.101 114.727 326.109 110.186C298.395 68.1248 255.569 43.5318 204.223 40.1928L197.121 39.7308V29.9418V20.1538L198.656 19.9568C200.487 19.7228 204.822 19.8548 211.947 20.3618ZM179.079 27.0938C177.39 27.8438 175.749 28.5598 175.432 28.6838C173.093 29.6008 173.656 30.3328 178.296 32.4038C183.071 34.5358 183.474 34.4688 183.547 31.5328C183.712 24.8778 183.821 24.9858 179.079 27.0938ZM182.534 29.9738C182.534 33.7758 182.702 33.7158 178.011 31.5728C174.407 29.9268 174.427 29.7898 178.529 27.9558C182.603 26.1338 182.534 26.0988 182.534 29.9738ZM107.869 100.933C98.5022 101.857 89.9962 103.765 82.1512 106.7C77.4462 108.46 68.4272 113.057 66.4112 114.723C65.4612 115.508 62.8692 117.471 60.6532 119.084C52.2862 125.173 43.8022 133.992 38.5822 142.026C35.1542 147.301 34.2382 148.888 32.1382 153.196C29.6752 158.25 27.9492 162.684 26.6632 167.266C26.1752 169.003 25.6752 170.587 25.5522 170.787C25.4282 170.987 25.1632 171.984 24.9632 173.003C24.7622 174.022 24.1542 176.929 23.6122 179.463C21.2762 190.373 22.1432 214.432 25.3402 227.447C25.5482 228.292 25.9842 230.278 26.3102 231.862C26.6362 233.445 27.1392 235.605 27.4292 236.66C27.7182 237.716 28.1522 239.357 28.3932 240.307C30.0142 246.702 33.4162 256.242 37.0172 264.491C38.5222 267.937 43.6292 278.21 44.1912 278.921C44.3732 279.152 45.0452 280.32 45.6842 281.517C57.7742 304.173 82.7422 329.397 107.895 344.364C131.806 358.593 164.808 368.522 188.188 368.522C193.07 368.522 192.749 369.284 192.772 357.626C192.796 345.695 193.219 346.601 187.435 346.215C157.485 344.214 127.942 333.283 105.384 315.854C89.9102 303.898 80.0662 293.286 68.2462 275.816C67.2462 274.338 65.6622 272.032 64.7272 270.691C61.4242 265.957 54.9962 252.107 52.2282 243.762C51.7732 242.39 51.2252 240.749 51.0102 240.115C50.6332 239.003 49.6612 235.66 48.5552 231.67C43.8712 214.772 43.0312 187.594 46.8112 175.266C54.7032 149.529 71.9632 132.409 97.1622 125.324C104.006 123.4 119.131 122.67 126.789 123.894C155.997 128.565 180.948 153.465 185.03 182.018C185.72 186.849 185.822 187.332 186.151 187.332C186.732 187.332 187.308 185.27 187.707 181.766C188.563 174.25 191.862 162.746 195.227 155.545C197.461 150.765 197.444 149.919 195.037 145.955C181.116 123.036 157.756 106.718 132.821 102.495C130.393 102.084 127.457 101.561 126.296 101.334C123.645 100.814 111.702 100.554 107.869 100.933ZM124.568 102.127C132.226 103.009 137.239 104.107 145.489 106.71C164.957 112.851 185.373 130.034 195.766 149.025C196.761 150.843 196.765 150.79 195.345 153.847C194.079 156.572 194.071 156.592 192.521 160.378C190.429 165.489 187.99 174.658 187.324 179.912C186.739 184.523 186.261 184.452 185.599 179.655C185.357 177.897 183.371 170.879 182.72 169.482C182.524 169.06 182.018 167.814 181.596 166.715C174.383 147.898 155.763 130.828 136.276 125.168C135.326 124.892 133.772 124.44 132.821 124.164C113.133 118.442 83.0472 125.315 69.3242 138.669C69.0492 138.937 67.6892 140.159 66.3012 141.385C55.7702 150.689 47.4162 165.827 44.7592 180.422C42.2952 193.961 43.6692 216.936 47.7912 231.094C48.1302 232.255 48.5592 233.896 48.7462 234.741C54.8822 262.451 78.9632 297.551 104.99 316.723C130.064 335.191 154.504 344.224 187.716 347.299L190.979 347.601L191.081 357.241C191.168 365.426 191.097 366.954 190.608 367.359C190.007 367.858 180.902 367.388 176.2 366.616C175.038 366.425 172.965 366.152 171.593 366.01C134.834 362.204 89.9292 337.267 64.4752 306.526C62.9022 304.626 61.5282 302.985 61.4222 302.879C59.7222 301.191 51.1282 288.887 47.9182 283.546C32.1642 257.338 22.9672 224.728 23.0512 195.371C23.0712 188.218 24.5602 176.456 26.0842 171.41C26.2762 170.772 26.7332 169.213 27.0982 167.946C32.7612 148.309 46.2902 129.447 62.7642 118.221C63.8202 117.502 65.0292 116.623 65.4512 116.268C67.2222 114.78 76.2742 110.058 80.9092 108.205C94.0702 102.943 111.083 100.575 124.568 102.127ZM207.325 202.01C207.099 203.122 206.574 206.19 206.157 208.829C204.829 217.244 201.904 226.707 198.642 233.14C196.578 237.212 196.771 237.933 202.054 245.873C216.644 267.803 241.241 282.936 267.551 286.168C276.564 287.275 291.704 286.717 297.889 285.048C299.05 284.735 301.209 284.199 302.687 283.857C312.471 281.596 326.184 275.239 329.41 271.471C330.753 269.901 336.719 258.657 338.204 254.894C338.663 253.733 339.552 251.488 340.181 249.904C343.907 240.513 346.874 230.053 348.401 220.921C349.549 214.057 350.215 207.091 349.907 205.182L349.598 203.263L349.108 205.566C347.738 211.997 346.187 217.384 344.907 220.154C338.309 234.43 331.287 243.525 321.272 250.765C319.059 252.365 315.883 254.511 315.728 254.511C315.635 254.511 314.735 255.015 313.729 255.632C298.401 265.028 274.541 267.179 256.238 260.815C249.123 258.341 238.899 252.681 235.1 249.113C234.664 248.703 234.185 248.369 234.036 248.369C233.569 248.369 225.937 240.609 224.154 238.321C215.195 226.826 211.448 218.002 208.661 201.837C208.291 199.689 207.783 199.755 207.325 202.01ZM209.278 209.981C211.105 217.452 214.616 226.209 217.288 229.961C217.703 230.544 218.042 231.146 218.042 231.3C218.042 232.08 223.993 239.695 227.351 243.212C263.499 281.073 325.649 269.11 345.854 220.401C346.498 218.848 347.026 217.38 347.027 217.138C347.029 216.896 347.312 216.18 347.657 215.547C348.002 214.914 348.427 213.791 348.601 213.052C348.894 211.803 348.906 211.83 348.772 213.436C347.446 229.314 340.895 249.599 331.253 267.681C329.151 271.623 325.714 274.011 315.931 278.328C295.167 287.491 270.455 288.415 248.953 280.831C229.207 273.868 212.758 260.896 201.462 243.378C197.534 237.288 197.492 237.064 199.463 232.765C201.443 228.447 201.429 228.479 202.539 225.528C204.41 220.552 207.276 208.573 207.727 203.839C207.757 203.522 207.855 203.695 207.943 204.223C208.032 204.75 208.632 207.342 209.278 209.981Z" fill="#001720"/>
<ellipse cx="157" cy="33.5" rx="6" ry="5.5" fill="#003F58"/>
</svg>
